<?xml version="1.0" encoding="UTF-8"?>
<svg width="200px" height="200px" viewBox="0 0 200 200" version="1.1" xmlns="http://www.w3.org/2000/svg" xmlns:xlink="http://www.w3.org/1999/xlink">
    <!-- Generator: Sketch 48.2 (47327) - http://www.bohemiancoding.com/sketch -->
    <title>CSharpIcon</title>
    <desc>Created with Sketch.</desc>
    <defs></defs>
    <g id="Projects" stroke="none" stroke-width="1" fill="none" fill-rule="evenodd">
        <g id="CSharpIcon">
            <g id="Group" transform="translate(13.000000, 0.000000)">
                <path d="M36.8283997,70.5890619 C31.7853359,79.1673949 28.8932522,89.1623137 28.8932522,99.8327148 C28.8932522,131.74732 54.7651515,157.619219 86.6797567,157.619219 C107.17532,157.619219 125.178745,146.949105 135.438133,130.860773 L111.058945,115.346744 C105.929251,123.39091 96.9275384,128.725967 86.6797567,128.725967 C70.7224541,128.725967 57.7865045,115.790017 57.7865045,99.8327148 C57.7865045,94.4943622 59.2342554,89.49415 61.7585485,85.203287 L171.937995,149.791239 C171.08592,151.213659 169.87961,152.42585 168.398224,153.289992 L91.7184669,198.01985 C88.6048418,199.836131 84.7546716,199.836131 81.6410464,198.01985 L4.96128974,153.289992 C1.88911268,151.497889 1.28700644e-14,148.208874 1.24344979e-14,144.652203 L1.42108547e-14,55.0132268 C1.39838264e-14,53.1594001 0.513226158,51.3782891 1.43969901,49.8439615 L36.8283997,70.5890619 Z" id="Combined-Shape-Copy" fill="#68217A"></path>
                <path d="M37.0694896,129.482653 L1.59679241,150.073126 C0.571416254,148.483442 -1.5368037e-15,146.608303 -1.77635684e-15,144.652203 L0,55.0132268 C-4.35566532e-16,51.4565561 1.88911268,48.167541 4.96128974,46.3754377 L81.6410464,1.64557967 C84.7546716,-0.170701649 88.6048418,-0.170701649 91.7184669,1.64557967 L168.398224,46.3754377 C170.220712,47.4385559 171.626863,49.0284588 172.469279,50.888522 L62.0662504,114.973039 C59.3522546,110.570301 57.7865045,105.384358 57.7865045,99.8327148 C57.7865045,83.8754123 70.7224541,70.9394626 86.6797567,70.9394626 C96.9275384,70.9394626 105.929251,76.2745199 111.058945,84.3186859 L135.438133,68.8046569 C125.178745,52.7163249 107.17532,42.0462104 86.6797567,42.0462104 C54.7651515,42.0462104 28.8932522,67.9181097 28.8932522,99.8327148 C28.8932522,110.672015 31.8776166,120.814279 37.0694896,129.482653 Z" id="Combined-Shape" fill="#953DAC"></path>
                <path d="M169.995201,47.5317695 C172.111739,49.4088852 173.359513,52.1226616 173.359513,55.0132268 L173.359513,144.652203 C173.359513,147.356775 172.267149,149.906577 170.392875,151.761095 L87,100 L169.995201,47.5317695 Z M139.398911,101.004361 L141.057234,91.8533701 L148.563778,91.8533701 L147.181842,101.004361 L139.398911,101.004361 Z M134.181842,101.004361 L129.073988,101.004361 L129.073988,104.85337 L133.600585,104.85337 L132.341544,113.190571 L137.190553,113.190571 L138.701402,104.85337 L146.600585,104.85337 L145.341544,113.190571 L150.190553,113.190571 L151.701402,104.85337 L157.215768,104.85337 L157.215768,101.004361 L152.398911,101.004361 L154.057234,91.8533701 L158.215768,91.8533701 L158.215768,88.0043608 L154.754743,88.0043608 L156.190553,80.0812395 L150.341544,80.0812395 L149.145035,88.0043608 L141.754743,88.0043608 L143.190553,80.0812395 L137.341544,80.0812395 L136.145035,88.0043608 L130.073988,88.0043608 L130.073988,91.8533701 L135.563778,91.8533701 L134.181842,101.004361 Z" id="Combined-Shape-Copy-2" fill="#822C98"></path>
            </g>
        </g>
    </g>
</svg>