<?xml version="1.0" encoding="UTF-8"?>
<svg width="200px" height="200px" viewBox="0 0 200 200" version="1.1" xmlns="http://www.w3.org/2000/svg" xmlns:xlink="http://www.w3.org/1999/xlink">
    <!-- Generator: Sketch 48.2 (47327) - http://www.bohemiancoding.com/sketch -->
    <title>HTML5Icon</title>
    <desc>Created with Sketch.</desc>
    <defs></defs>
    <g id="Page-1" stroke="none" stroke-width="1" fill="none" fill-rule="evenodd">
        <g id="HTML5Icon" fill-rule="nonzero">
            <g id="HTML5-logo" transform="translate(30.000000, 3.000000)">
                <polygon id="Shape" fill="#E44D26" points="12.94 181.106538 0.243461538 38.7 139.756538 38.7 127.046538 181.084231 69.9146154 196.923077"></polygon>
                <polygon id="Shape" fill="#F16529" points="70 184.816538 116.165385 172.017692 127.026923 50.3438462 70 50.3438462"></polygon>
                <polygon id="Shape" fill="#EBEBEB" points="70 103.160385 46.8884615 103.160385 45.2923077 85.2753846 70 85.2753846 70 67.8096154 69.9396154 67.8096154 26.2046154 67.8096154 26.6226923 72.4953846 30.9153846 120.625769 70 120.625769"></polygon>
                <polygon id="Shape" fill="#EBEBEB" points="70 148.520385 69.9234615 148.540769 50.4719231 143.288462 49.2284615 129.358846 39.7765385 129.358846 31.6957692 129.358846 34.1426923 156.782308 69.9196154 166.714231 70 166.691923"></polygon>
                <polygon id="Shape" fill="#000000" points="13.2238462 0 22.0996154 0 22.0996154 8.76923077 30.2188462 8.76923077 30.2188462 0 39.095 0 39.095 26.5553846 30.2192308 26.5553846 30.2192308 17.6630769 22.1 17.6630769 22.1 26.5553846 13.2242308 26.5553846 13.2242308 0"></polygon>
                <polygon id="Shape" fill="#000000" points="50.7669231 8.80615385 42.9530769 8.80615385 42.9530769 0 67.4607692 0 67.4607692 8.80615385 59.6434615 8.80615385 59.6434615 26.5553846 50.7673077 26.5553846 50.7673077 8.80615385"></polygon>
                <polygon id="Shape" fill="#000000" points="71.3503846 0 80.6053846 0 86.2984615 9.33076923 91.9857692 0 101.244231 0 101.244231 26.5553846 92.405 26.5553846 92.405 13.3930769 86.2984615 22.835 86.1457692 22.835 80.035 13.3930769 80.035 26.5553846 71.3503846 26.5553846 71.3503846 0"></polygon>
                <polygon id="Shape" fill="#000000" points="105.661538 0 114.54 0 114.54 17.7776923 127.021923 17.7776923 127.021923 26.5553846 105.661538 26.5553846"></polygon>
                <polygon id="Shape" fill="#FFFFFF" points="69.9396154 103.160385 69.9396154 120.625769 91.4465385 120.625769 89.4192308 143.277308 69.9396154 148.535 69.9396154 166.705769 105.745 156.782308 106.007692 153.831538 110.111923 107.850385 110.538077 103.160385 105.831538 103.160385"></polygon>
                <polygon id="Shape" fill="#FFFFFF" points="69.9396154 67.8096154 69.9396154 78.6573077 69.9396154 85.2326923 69.9396154 85.2753846 112.071154 85.2753846 112.071154 85.2753846 112.127308 85.2753846 112.477692 81.3496154 113.273462 72.4953846 113.691154 67.8096154"></polygon>
            </g>
        </g>
    </g>
</svg>