<?xml version="1.0" encoding="utf-8"?>
<!-- Generator: Adobe Illustrator 21.1.0, SVG Export Plug-In . SVG Version: 6.00 Build 0)  -->
<svg version="1.1" id="Calque_1" xmlns="http://www.w3.org/2000/svg" xmlns:xlink="http://www.w3.org/1999/xlink" x="0px" y="0px"
	 viewBox="0 0 32 32" style="enable-background:new 0 0 32 32;" xml:space="preserve">
<style type="text/css">
	.st0{fill:#009A2C;}
	.st1{fill:#FFFFFF;}
</style>
<g>
	<path d="M29.2,17.7V7.3c0-2.5-2-4.5-4.5-4.5H7.3c-2.5,0-4.5,2-4.5,4.5v10.4H29.2z"/>
	<path class="st0" d="M2.8,15.9v8.7c0,2.5,2,4.5,4.5,4.5h17.4c2.5,0,4.5-2,4.5-4.5v-8.7H2.8z"/>
	<g>
		<path class="st1" d="M14.5,24.3c0-0.1,0-0.2,0-0.3c0-1.7,0-3.3,0-5c0-0.3,0.1-0.3,0.3-0.3c0.6,0,1.2,0,1.8,0
			c1.1,0,1.8,1.1,1.3,2.1c-0.1,0.2-0.4,0.4-0.5,0.6c0.8,0.3,0.9,1,0.8,1.8c-0.1,0.7-0.7,1.1-1.5,1.1C15.9,24.3,15.2,24.3,14.5,24.3z
			 M15.7,21.8c0,0.6,0,1.1,0,1.7c0.4,0,0.9,0.1,1.2-0.3c0.2-0.3,0.2-0.7,0-1C16.5,21.7,16.1,21.8,15.7,21.8z M15.7,21
			c0.4,0,0.9,0.1,1.1-0.4c0.1-0.3,0.2-0.6-0.1-0.9c-0.3-0.3-0.7-0.2-1-0.2C15.7,20,15.7,20.5,15.7,21z"/>
		<path class="st1" d="M10.1,18.7c0.8,0,1.5,0,2.3,0c0.7,0,1.1,0.5,1.3,1.1c0.2,0.8,0.2,1.6,0.1,2.4c0,0.3-0.1,0.6-0.2,0.9
			c-0.2,0.6-0.6,1.1-1.3,1.1c-0.7,0.1-1.5,0-2.2,0C10.1,22.4,10.1,20.5,10.1,18.7z M11.2,19.5c0,1.3,0,2.6,0,3.9c0.1,0,0.2,0,0.3,0
			c0.7,0,0.9-0.2,1-0.8c0.1-0.4,0.1-0.8,0.1-1.2c0-0.5-0.1-0.9-0.1-1.3c0-0.3-0.2-0.5-0.5-0.5C11.8,19.5,11.5,19.5,11.2,19.5z"/>
		<path class="st1" d="M20,23.4c0.6,0,1.2,0,1.8,0c0.2,0,0.2,0.1,0.2,0.2c0,0.7,0,0.7-0.6,0.7c-0.8,0-1.7,0-2.5,0
			c-0.1,0-0.2,0-0.3,0c0-0.5,0.1-1,0.4-1.4c0.3-0.4,0.6-0.8,1-1.1c0.1-0.1,0.2-0.2,0.4-0.3c0.5-0.4,0.6-0.9,0.5-1.4
			c0-0.3-0.2-0.4-0.4-0.5c-0.2,0-0.5,0.1-0.6,0.3c-0.1,0.2-0.1,0.5-0.2,0.8c-0.3,0-0.6,0-1,0c0,0-0.1-0.1-0.1-0.2
			c0-0.9,0.3-1.6,1.5-1.6c0.3,0,0.6,0,0.9,0.1c0.6,0.1,1,0.6,1.1,1.2c0.1,0.7-0.1,1.3-0.7,1.8c-0.3,0.3-0.6,0.6-0.9,0.9
			C20.2,22.9,20.1,23.1,20,23.4C19.9,23.4,19.9,23.4,20,23.4z"/>
		<path class="st1" d="M11.3,8.4c0-0.2,0-0.3,0-0.5c0.1,0,0.2,0,0.3,0c1.5,0,2.9,0,4.4,0c0.4,0,0.5,0,0.5,0.5
			C14.8,8.4,13.1,8.4,11.3,8.4z"/>
		<path class="st1" d="M16.5,12.8c0,0.5-0.1,0.5-0.5,0.5c-1.4,0-2.9,0-4.3,0c-0.1,0-0.2,0-0.3,0c0-0.2,0-0.3,0-0.5
			C13,12.8,14.8,12.8,16.5,12.8z"/>
		<path class="st1" d="M19.4,10.3c0-0.1-0.1-0.2-0.1-0.3c0,0.1,0,0.2,0,0.3c-0.4,0-0.9,0-1.4,0c0-0.2,0-0.3,0-0.5c0.1,0,0.2,0,0.3,0
			c0.7,0,1.4,0,2,0c0.2,0,0.4,0.1,0.4,0.3c0,0,0,0.1,0.1,0.2c0-0.5,0.3-0.5,0.6-0.5c0.7,0,1.4,0,2.1,0c0,0.2,0,0.3,0,0.5
			c-0.4,0-0.9,0-1.3,0c0-0.1,0-0.1-0.1-0.2c0,0.1-0.1,0.2-0.1,0.2C21.1,10.3,20.2,10.3,19.4,10.3z"/>
		<path class="st1" d="M11.3,14.3c0-0.1,0-0.3,0-0.5c1.5,0,3.1,0,4.7,0c-0.3,0.3-0.7,0.5-1,0.5C13.8,14.3,12.6,14.3,11.3,14.3
			C11.4,14.3,11.3,14.3,11.3,14.3z"/>
		<path class="st1" d="M16,7.4c-1.6,0-3.1,0-4.7,0c0-0.2,0-0.3,0-0.5c0.1,0,0.1,0,0.2,0c1.1,0,2.2,0,3.2,0C15.2,6.8,15.6,7,16,7.4z"
			/>
		<path class="st1" d="M12.3,11.3c0-0.2,0-0.3,0-0.5c0.1,0,0.2,0,0.3,0c1,0,2,0,3,0c0.4,0,0.6,0.2,0.8,0.5
			C14.9,11.3,13.6,11.3,12.3,11.3z"/>
		<path class="st1" d="M12.3,10.3c0-0.2,0-0.3,0-0.5c1.3,0,2.6,0,4,0c-0.1,0.4-0.3,0.5-0.6,0.5c-1,0-2,0-3.1,0
			C12.4,10.3,12.3,10.3,12.3,10.3z"/>
		<path class="st1" d="M7.6,8.4c0-0.2,0-0.3,0-0.5c1.1,0,2.2,0,3.2,0c0,0.2,0,0.3,0,0.5C9.8,8.4,8.7,8.4,7.6,8.4z"/>
		<path class="st1" d="M7.6,13.3c0-0.2,0-0.3,0-0.5c1.1,0,2.2,0,3.2,0c0,0.2,0,0.3,0,0.5C9.8,13.3,8.7,13.3,7.6,13.3z"/>
		<path class="st1" d="M21.3,8.4c0-0.1,0.1-0.3,0.1-0.4c0,0,0.1-0.1,0.1-0.1c0.9,0,1.9,0,2.8,0c0,0.2,0,0.3,0,0.5
			C23.4,8.4,22.3,8.4,21.3,8.4z"/>
		<path class="st1" d="M16.9,8.4c0-0.2,0-0.3,0-0.5c0.1,0,0.2,0,0.3,0c0.7,0,1.5,0,2.2,0c0.5,0,0.5,0,0.6,0.5
			C19,8.4,18,8.4,16.9,8.4z"/>
		<path class="st1" d="M10.9,6.9c0,0.2,0,0.3,0,0.5c-1.1,0-2.1,0-3.2,0c0-0.2,0-0.3,0-0.5C8.7,6.9,9.8,6.9,10.9,6.9z"/>
		<path class="st1" d="M10.9,13.8c0,0.2,0,0.3,0,0.5c-1.1,0-2.1,0-3.2,0c0-0.2,0-0.3,0-0.5C8.7,13.8,9.8,13.8,10.9,13.8z"/>
		<path class="st1" d="M24.4,6.8c0,0.2,0,0.3,0,0.5c-0.9,0-1.8,0-2.7,0c0-0.4,0.1-0.5,0.4-0.5C22.8,6.8,23.6,6.8,24.4,6.8z"/>
		<path class="st1" d="M19.5,6.9c0,0.2,0.1,0.3,0.2,0.5c-0.9,0-1.8,0-2.7,0c0-0.2,0-0.3,0-0.5C17.8,6.9,18.7,6.9,19.5,6.9z"/>
		<path class="st1" d="M19.2,13.3c-0.8,0-1.5,0-2.3,0c0-0.2,0-0.3,0-0.5c0.7,0,1.5,0,2.3,0C19.2,13,19.2,13.1,19.2,13.3z"/>
		<path class="st1" d="M24.4,12.8c0,0.2,0,0.3,0,0.5c-0.8,0-1.5,0-2.3,0c0-0.2,0-0.3,0-0.5C22.9,12.8,23.6,12.8,24.4,12.8z"/>
		<path class="st1" d="M23.4,8.8c0,0.2,0,0.3,0,0.5c-0.8,0-1.6,0-2.4,0c0-0.4,0.1-0.5,0.5-0.5C22.1,8.8,22.8,8.8,23.4,8.8z"/>
		<path class="st1" d="M20.3,9.4c-0.8,0-1.6,0-2.4,0c0-0.2,0-0.3,0-0.5c0.1,0,0.2,0,0.3,0c0.5,0,1.1,0,1.6,0
			C20.2,8.8,20.2,8.8,20.3,9.4z"/>
		<path class="st1" d="M22.1,14.3c0-0.2,0-0.3,0-0.5c0.8,0,1.5,0,2.3,0c0,0.2,0,0.3,0,0.5C23.6,14.3,22.9,14.3,22.1,14.3z"/>
		<path class="st1" d="M17,13.8c0.8,0,1.5,0,2.3,0c0,0.2,0,0.3,0,0.5c-0.8,0-1.5,0-2.3,0C17,14.1,17,14,17,13.8z"/>
		<path class="st1" d="M21.8,10.8C21.8,10.8,21.8,10.9,21.8,10.8c-0.1,0.5-0.1,0.5-0.6,0.5c-0.4,0-0.8,0-1.1,0c-0.4,0-0.5,0-0.5-0.5
			C20.3,10.8,21,10.8,21.8,10.8z"/>
		<path class="st1" d="M19.9,11.8c0.5,0,1.1,0,1.6,0c0,0.1-0.1,0.3-0.1,0.4c0,0.1-0.1,0.1-0.2,0.2c-0.3,0-0.5,0-0.8,0
			c-0.3,0-0.4-0.1-0.4-0.3C19.9,11.9,19.9,11.9,19.9,11.8z"/>
		<path class="st1" d="M15.1,12.3c0-0.2,0-0.3,0-0.5c0.4,0,0.9,0,1.3,0c0.1,0,0.1,0.1,0.1,0.2c0,0.1,0,0.2,0,0.3
			C16.1,12.3,15.6,12.3,15.1,12.3z"/>
		<path class="st1" d="M13.7,12.3c-0.5,0-0.9,0-1.4,0c0-0.2,0-0.3,0-0.5c0.5,0,0.9,0,1.4,0C13.7,12,13.7,12.1,13.7,12.3z"/>
		<path class="st1" d="M17.9,12.3c0-0.2,0-0.3,0-0.5c0.5,0,0.9,0,1.4,0c0,0.2,0,0.3,0,0.5C18.8,12.3,18.3,12.3,17.9,12.3z"/>
		<path class="st1" d="M8.5,12.3c0-0.2,0-0.3,0-0.5c0.5,0,0.9,0,1.4,0c0,0.2,0,0.3,0,0.5C9.5,12.3,9,12.3,8.5,12.3z"/>
		<path class="st1" d="M23.4,11.8c0,0.2,0,0.3,0,0.5c-0.5,0-0.9,0-1.3,0c0-0.2,0-0.3,0-0.5C22.6,11.8,23,11.8,23.4,11.8z"/>
		<path class="st1" d="M16.5,9.4c-0.5,0-1,0-1.4,0c0-0.2,0-0.3,0-0.5c0.5,0,1,0,1.5,0C16.5,9,16.5,9.2,16.5,9.4z"/>
		<path class="st1" d="M13.6,8.9c0,0.2,0,0.3,0,0.5c-0.5,0-0.9,0-1.4,0c0-0.2,0-0.3,0-0.5C12.7,8.9,13.2,8.9,13.6,8.9z"/>
		<path class="st1" d="M9.9,8.9c0,0.2,0,0.3,0,0.5c-0.5,0-0.9,0-1.4,0c0-0.2,0-0.3,0-0.5C9,8.9,9.5,8.9,9.9,8.9z"/>
		<path class="st1" d="M8.5,10.3c0-0.2,0-0.3,0-0.5c0.5,0,0.9,0,1.4,0c0,0.2,0,0.3,0,0.5C9.5,10.3,9,10.3,8.5,10.3z"/>
		<path class="st1" d="M9.9,11.3c-0.5,0-0.9,0-1.4,0c0-0.2,0-0.3,0-0.5c0.4,0,0.9,0,1.4,0C9.9,11,9.9,11.1,9.9,11.3z"/>
		<path class="st1" d="M17.9,11.3c0-0.2,0-0.3,0-0.5c0.5,0,0.9,0,1.4,0c0,0.2,0,0.3,0,0.5C18.8,11.3,18.3,11.3,17.9,11.3z"/>
		<path class="st1" d="M23.4,11.3c-0.4,0-0.9,0-1.3,0c0-0.2,0-0.3,0-0.5c0.4,0,0.9,0,1.3,0C23.4,11,23.4,11.1,23.4,11.3z"/>
		<path class="st1" d="M20.2,12.8c0.3,0,0.6,0,1,0c-0.2,0.2,0,0.5-0.4,0.5C20.3,13.3,20.2,13.3,20.2,12.8z"/>
		<path class="st1" d="M20.6,14.3c-0.1-0.2-0.1-0.3-0.2-0.5c0.1,0,0.2,0,0.4,0C20.8,14,20.8,14.1,20.6,14.3
			C20.7,14.3,20.7,14.3,20.6,14.3z"/>
	</g>
</g>
</svg>
