<?xml version="1.0" encoding="UTF-8"?>
<svg width="180px" height="180px" viewBox="0 0 180 180" version="1.1" xmlns="http://www.w3.org/2000/svg" xmlns:xlink="http://www.w3.org/1999/xlink">
    <!-- Generator: Sketch 48.2 (47327) - http://www.bohemiancoding.com/sketch -->
    <title>IBM CICS</title>
    <desc>Created with Sketch.</desc>
    <defs></defs>
    <g id="Page-1" stroke="none" stroke-width="1" fill="none" fill-rule="evenodd">
        <g id="IBM-CICS">
            <g id="Group" transform="translate(-41.000000, 4.000000)">
                <rect id="Rectangle-2" fill="#4F4CC0" x="45" y="0" width="172" height="172" rx="30"></rect>
                <path d="M217,86 L45,86 L45,30 C45,13.4314575 58.4314575,3.04359188e-15 75,0 L187,3.55271368e-15 C203.568542,5.09121799e-16 217,13.4314575 217,30 L217,86 Z" id="Combined-Shape" fill="#000000"></path>
                <path d="M70,22 L70,25.3797133 L94.1364066,25.3797133 L94.1364066,22 L70,22 Z M97.5560947,22 L97.5560947,25.3797133 L131.951562,25.3797133 C131.951562,25.3797133 128.438255,22 123.785,22 L97.5560947,22 Z M138.698907,22 L138.698907,25.3797133 L159.507657,25.3797133 L158.2725,22 L138.698907,22 Z M174.426407,22 L173.19125,25.3797133 L193.811093,25.3797133 L193.811093,22 L174.426407,22 Z M70,28.5727266 L70,31.9524388 L94.1364066,31.9524388 L94.1364066,28.5727266 L70,28.5727266 Z M97.5560947,28.5775139 L97.5560947,31.9524388 L135.942813,31.9524388 C135.942813,31.9524388 135.494475,29.3512667 134.7125,28.5775139 L97.5560947,28.5775139 Z M138.698907,28.5775139 L138.698907,31.9524388 L161.789063,31.9524388 L160.645937,28.5775139 L138.698907,28.5775139 Z M171.956093,28.5775139 L170.812968,31.9524388 L193.811093,31.9524388 L193.811093,28.5775139 L171.956093,28.5775139 Z M76.9362495,35.1454532 L76.9362495,38.5299519 L87.3890619,38.5299519 L87.3890619,35.1454532 L76.9362495,35.1454532 Z M104.492345,35.1454532 L104.492345,38.5299519 L114.945155,38.5299519 L114.945155,35.1454532 L104.492345,35.1454532 Z M125.112188,35.1454532 L125.112188,38.5299519 L135.565,38.5299519 C135.565001,38.5299519 136.228593,36.7425928 136.228593,35.1454532 L125.112188,35.1454532 Z M145.635157,35.1454532 L145.635157,38.5299519 L164.167345,38.5299519 L162.932188,35.1454532 L145.635157,35.1454532 Z M169.679532,35.1454532 L168.439532,38.5299519 L187.06375,38.5299519 L187.06375,35.1454532 L169.679532,35.1454532 Z M76.9362495,41.7229677 L76.9362495,45.1026785 L87.3890619,45.1026785 L87.3890619,41.7229677 L76.9362495,41.7229677 Z M104.492345,41.7229677 L104.492345,45.1026785 L131.191095,45.1026785 C131.191096,45.1026772 133.424488,43.368514 134.136093,41.7229677 L104.492345,41.7229677 Z M145.635157,41.7229677 L145.635157,45.1026785 L156.087968,45.1026785 L156.087968,43.2213377 L156.751562,45.1026785 L175.898907,45.1026785 L176.610938,43.2213377 L176.610938,45.1026785 L187.06375,45.1026785 L187.06375,41.7229677 L167.441718,41.7229677 L166.400312,44.5856689 L165.354063,41.7229677 L145.635157,41.7229677 Z M76.9362495,48.2956943 L76.9362495,51.6754051 L87.3890619,51.6754051 L87.3890619,48.2956943 L76.9362495,48.2956943 Z M104.492345,48.2956943 L104.492345,51.6754051 L134.136093,51.6754051 C133.424335,50.035221 131.191095,48.2956943 131.191095,48.2956943 L104.492345,48.2956943 Z M145.635157,48.2956943 L145.635157,51.6754051 L156.087968,51.6754051 L156.087968,48.2956943 L145.635157,48.2956943 Z M157.986718,48.2956943 L159.250938,51.6754051 L173.607813,51.6754051 L174.809063,48.2956943 L157.986718,48.2956943 Z M176.610938,48.2956943 L176.610938,51.6754051 L187.06375,51.6754051 L187.06375,48.2956943 L176.610938,48.2956943 Z M76.9362495,54.8684209 L76.9362495,58.2481316 L87.3890619,58.2481316 L87.3890619,54.8684209 L76.9362495,54.8684209 Z M104.492345,54.8684209 L104.492345,58.2481316 L114.945155,58.2481316 L114.945155,54.8684209 L104.492345,54.8684209 Z M125.112188,54.8684209 L125.112188,58.2481316 L136.228593,58.2481316 C136.228596,56.6531409 135.565,54.8684209 135.565,54.8684209 L125.112188,54.8684209 Z M145.635157,54.8684209 L145.635157,58.2481316 L156.087968,58.2481316 L156.087968,54.8684209 L145.635157,54.8684209 Z M160.360155,54.8684209 L161.585625,58.2481316 L171.210155,58.2481316 L172.445312,54.8684209 L160.360155,54.8684209 Z M176.610938,54.8684209 L176.610938,58.2481316 L187.06375,58.2481316 L187.06375,54.8684209 L176.610938,54.8684209 Z M70.1889053,61.4411474 L70.1889053,64.8256462 L94.3253119,64.8256462 L94.3253119,61.4411474 L70.1889053,61.4411474 Z M97.5560947,61.4411474 L97.5560947,64.8256462 L134.7125,64.8256462 C135.494475,64.0506684 135.942813,61.4411474 135.942813,61.4411474 L97.5560947,61.4411474 Z M138.887812,61.4411474 L138.887812,64.8256462 L156.087968,64.8256462 L156.087968,61.4411474 L138.887812,61.4411474 Z M162.738437,61.4411474 L163.997812,64.8256462 L168.894843,64.8256462 L170.076718,61.4411474 L162.738437,61.4411474 Z M176.610938,61.4411474 L176.610938,64.8256462 L194,64.8256462 L194,61.4411474 L176.610938,61.4411474 Z M70.1889053,68.0186607 L70.1889053,71.398374 L94.3253119,71.398374 L94.3253119,68.0186607 L70.1889053,68.0186607 Z M97.5560947,68.0186607 L97.5560947,71.3935873 L123.785,71.3935873 C128.438254,71.3935848 131.951562,68.0186607 131.951562,68.0186607 L97.5560947,68.0186607 Z M138.887812,68.0186607 L138.887812,71.398374 L156.087968,71.398374 L156.087968,68.0186607 L138.887812,68.0186607 Z M165.126407,68.0186607 L166.337345,71.3887981 L166.545625,71.3935873 L167.775938,68.0186607 L165.126407,68.0186607 Z M176.610938,68.0186607 L176.610938,71.398374 L194,71.398374 L194,68.0186607 L176.610938,68.0186607 Z" id="Shape" fill="#FFFFFF" fill-rule="nonzero"></path>
                <text id="CICS" font-family="Helvetica" font-size="42" font-weight="normal" letter-spacing="2.70000005" fill="#FFFFFF">
                    <tspan x="74.9276366" y="137">CICS</tspan>
                </text>
            </g>
        </g>
    </g>
</svg>