<?xml version="1.0" encoding="UTF-8" standalone="no"?><!DOCTYPE svg PUBLIC "-//W3C//DTD SVG 1.1//EN" "http://www.w3.org/Graphics/SVG/1.1/DTD/svg11.dtd"><svg width="100%" height="100%" viewBox="0 0 250 250" version="1.1" xmlns="http://www.w3.org/2000/svg" xmlns:xlink="http://www.w3.org/1999/xlink" xml:space="preserve" xmlns:serif="http://www.serif.com/" style="fill-rule:evenodd;clip-rule:evenodd;stroke-linejoin:round;stroke-miterlimit:1.41421;"><g><g><path d="M204.777,175.606l0,-4.787l1.306,0l1.306,3.046l1.305,-3.046l1.306,0l0,4.787l-0.87,0l0,-2.611l-1.741,2.611l-1.741,-2.611l0,2.611l-0.871,0" style="fill:#009cb5;"/><path d="M150.373,209.99l19.586,0l0,-4.788l-13.493,0l0,-13.057l10.881,0l0,-4.352l-10.881,0l0,-12.187l13.057,0l0,-4.787l-19.15,0l0,39.171Z" style="fill:#ff8d00;"/><path d="M177.793,209.99l19.585,0l0,-4.788l-13.492,0l0,-13.057l10.881,0l0,-4.352l-10.881,0l0,-12.187l13.057,0l0,-4.787l-19.15,0l0,39.171Z" style="fill:#ff8d00;"/><path d="M199.99,171.689l0,-0.87l3.917,0l0,0.87l-1.306,0l0,3.917l-1.306,0l0,-3.917l-1.305,0" style="fill:#009cb5;"/></g><g><path d="M58.886,182.546c-0.197,0.067 -0.313,0.272 -0.268,0.475c0.168,0.755 0.557,2.505 0.719,3.233c0.017,0.081 0.071,0.148 0.146,0.183c0.074,0.036 0.16,0.035 0.234,-0.002c0.924,-0.421 3.869,-1.594 7.962,-1.594c5.876,0 6.086,2.805 6.093,7.501c0,0.088 -0.035,0.172 -0.097,0.235c-0.063,0.062 -0.147,0.096 -0.235,0.096c-9.152,-0.039 -16.207,1.44 -16.207,10.012c0,10.354 12.971,8.612 16.766,4.587c0.125,-0.14 0.331,-0.175 0.495,-0.084c0.332,0.229 0.556,0.638 0.581,2.156c0.014,0.168 0.154,0.298 0.323,0.298c2.555,0.007 3.677,0.007 4.149,0.007c0.084,0 0.165,-0.033 0.225,-0.093c0.06,-0.06 0.093,-0.141 0.093,-0.226c0,-2.561 0,-19.702 0,-19.702c0,-2.284 -0.07,-14.144 -20.979,-7.082Zm14.601,13.517c0.075,0 0.148,0.029 0.201,0.083c0.054,0.053 0.084,0.126 0.084,0.201c0,1.057 0,4.764 0,6.151c0,0.335 -0.158,0.651 -0.426,0.853c-1.711,1.242 -8.06,5.369 -10.02,-0.325c-2.221,-6.456 5.874,-6.945 10.161,-6.963Z" style="fill:#009cb5;"/><path d="M111.985,182.546c-0.198,0.067 -0.314,0.272 -0.268,0.475c0.167,0.755 0.556,2.505 0.718,3.233c0.018,0.081 0.072,0.148 0.146,0.183c0.074,0.036 0.161,0.035 0.234,-0.002c0.924,-0.421 3.87,-1.594 7.962,-1.594c5.876,0 6.087,2.805 6.093,7.501c0,0.088 -0.035,0.172 -0.097,0.235c-0.062,0.062 -0.147,0.096 -0.235,0.096c-9.152,-0.039 -16.206,1.44 -16.206,10.012c0,10.354 12.97,8.612 16.765,4.587c0.126,-0.14 0.331,-0.175 0.496,-0.084c0.332,0.229 0.555,0.638 0.581,2.156c0.013,0.168 0.154,0.298 0.322,0.298c2.556,0.007 3.677,0.007 4.149,0.007c0.085,0 0.166,-0.033 0.225,-0.093c0.06,-0.06 0.094,-0.141 0.094,-0.226c0,-2.561 0,-19.702 0,-19.702c0,-2.284 -0.07,-14.144 -20.979,-7.082Zm14.6,13.517c0.076,0 0.148,0.029 0.202,0.083c0.053,0.053 0.083,0.126 0.083,0.201c0,1.057 0,4.764 0,6.151c0.001,0.335 -0.157,0.651 -0.426,0.853c-1.711,1.242 -8.06,5.369 -10.019,-0.325c-2.222,-6.456 5.874,-6.945 10.16,-6.963Z" style="fill:#009cb5;"/><path d="M83.347,180.829l6.529,0l6.528,22.632l6.529,-22.632l6.528,0l-9.14,28.725l-7.834,0l-9.14,-28.725Z" style="fill:#009cb5;"/><path d="M45.482,170.819l6.093,0l0,35.689c0.037,9.645 -6.528,13.492 -6.528,13.492l-3.047,-2.611c1.247,-1.53 3.482,-3.567 3.482,-10.881l0,-35.689Z" style="fill:#009cb5;"/></g></g><g><path d="M99.766,124.88c-1.337,0 -2.673,0 -4.009,0c-1.782,0 -3.564,0.446 -5.346,1.782c-1.336,0.891 -1.336,2.227 0,3.564c0.891,0.445 1.782,0.89 2.673,1.336c2.227,0.891 4.454,1.336 7.127,1.782c4.9,0.891 9.8,1.336 14.7,1.781c5.345,0.446 10.245,0.446 15.591,0c5.79,-0.445 12.027,-0.89 17.817,-2.227c2.673,-0.891 5.791,-1.782 8.018,-3.118c0.891,-0.891 1.782,-1.336 2.228,-2.673c0.445,-0.89 0.445,-2.227 0,-3.118l0,-0.445c1.336,0.445 2.672,1.336 3.563,2.673c0.891,1.336 0.891,3.118 0,4.899c-0.891,1.782 -2.227,2.673 -4.009,4.009c-3.118,1.782 -6.236,2.673 -9.8,3.564c-4.454,1.336 -8.909,1.782 -13.808,2.227c-5.791,0.446 -11.582,0.891 -17.818,0.891c-4.9,0 -9.355,-0.445 -14.255,-0.891c-3.563,-0.445 -7.572,-0.891 -11.136,-1.781c-2.673,-0.891 -5.791,-1.782 -8.018,-3.119c-1.782,-1.781 -3.118,-2.672 -4.454,-4.454c-1.337,-1.782 -0.891,-4.009 0.891,-5.345c1.336,-1.337 3.118,-2.228 4.454,-2.673c3.564,-1.336 6.682,-1.336 10.245,-0.891c0.446,0 1.337,0.445 1.782,0.445c1.336,0.891 2.227,1.337 3.564,1.782Z" style="fill:#009cb5;fill-rule:nonzero;"/><path d="M123.82,91.917l-0.446,-0.445c-4.009,-2.673 -7.572,-5.791 -10.69,-9.355c-2.228,-2.672 -4.455,-5.345 -5.346,-8.463c-0.891,-2.227 -1.336,-4.455 -0.891,-6.682c0.446,-1.782 1.337,-3.563 2.228,-4.9c2.227,-2.672 4.454,-4.9 7.127,-7.127c3.118,-2.673 6.236,-4.9 8.909,-7.573c2.227,-2.227 4.454,-4.454 6.236,-7.127c1.336,-1.782 1.782,-4.009 1.782,-6.236c0,-1.336 0,-2.227 -0.446,-3.564l0,-0.445c0.446,0.891 0.891,1.782 1.337,2.673c1.336,2.672 1.781,4.9 1.781,8.018c0,2.672 -0.89,4.9 -2.227,7.572c-1.782,3.118 -4.009,6.237 -6.682,8.909c-2.672,2.673 -5.345,5.791 -8.018,8.464c-1.336,1.782 -2.672,3.563 -3.563,5.791c-0.446,1.781 -0.446,3.563 0,5.345c2.673,4.454 5.345,9.8 8.909,15.145c-0.446,0 0,0 0,0l0,0Z" style="fill:#ff8d00;fill-rule:nonzero;"/><path d="M110.456,89.69c-1.781,0.445 -3.118,0.891 -4.9,1.336c-1.336,0.446 -3.118,0.891 -4.454,1.782c-0.445,0.445 -0.891,0.445 -0.891,0.891c-0.445,0.445 -0.445,0.891 0.446,0.891c0.89,0.445 1.336,0.445 2.227,0.445c2.227,0.446 4.009,0.446 6.236,0.446c6.236,0.445 12.918,0 19.154,-0.446c3.564,0 7.127,-0.445 10.246,-0.891c3.118,-0.445 6.236,-0.891 9.354,-1.336l0.445,0c-0.445,0.445 -1.336,0.891 -1.781,1.336c-1.782,1.337 -3.564,2.673 -5.346,4.009c0,0 -0.445,0 -0.445,0.446c-4.009,0.445 -8.018,1.336 -12.027,1.782c-6.237,0.891 -12.473,0.891 -18.709,0.891c-4.455,0 -8.909,-0.446 -13.363,-0.891c-2.228,-0.446 -4.9,-0.891 -7.128,-2.228c-0.445,-0.445 -1.336,-0.89 -1.781,-1.336c-1.337,-1.336 -0.891,-3.118 0.445,-4.009c1.336,-1.336 3.118,-1.782 4.455,-2.227c4.009,-1.337 8.018,-1.337 12.027,-1.782c2.227,1.336 4.009,0.891 5.79,0.891l0,0Z" style="fill:#009cb5;fill-rule:nonzero;"/><path d="M127.383,94.59c1.337,-0.891 2.228,-2.227 2.673,-3.564c0.891,-1.336 1.336,-2.672 1.336,-4.009c0,-1.782 -0.445,-3.118 -1.336,-4.9c-1.336,-1.781 -2.227,-3.563 -3.564,-5.345c-1.336,-1.782 -2.227,-4.009 -2.227,-6.236c0,-1.782 0,-3.118 0.446,-4.9c1.336,-3.564 3.563,-6.682 6.681,-8.909c3.564,-2.227 7.128,-4.009 11.137,-4.9c3.118,-0.891 5.79,-1.336 8.909,-1.782c0,0 -0.446,0 -0.446,0.446c-3.563,2.227 -6.682,4.454 -9.8,6.681c-2.227,1.782 -4.009,3.564 -5.791,5.346c-0.445,0.445 -0.89,1.336 -1.336,1.781c-1.336,1.782 -1.336,4.009 -0.445,5.791c0.445,1.337 1.336,2.673 1.781,4.009c0.891,1.337 1.782,3.118 2.228,4.455c1.336,3.563 0.891,6.681 -1.337,9.354c-1.781,2.673 -4.454,4.009 -7.127,4.9c0,1.336 -0.891,1.782 -1.782,1.782l0,0Z" style="fill:#ff8d00;fill-rule:nonzero;"/><path d="M144.31,110.626c-0.891,0.445 -1.336,0.445 -1.781,0.891c-4.455,1.782 -8.909,2.672 -13.809,3.118c-4.455,0.445 -8.464,0.891 -12.918,0.445c-4.455,0 -8.909,-0.445 -13.364,-1.781c-1.781,-0.446 -3.118,-0.891 -4.454,-2.228c-0.446,-0.445 -0.891,-0.891 -0.891,-0.891c-0.445,-0.89 -0.445,-1.781 0.445,-2.672c0.891,-1.337 2.228,-1.782 3.564,-2.673c1.336,-0.891 2.673,-1.336 4.009,-1.336c0.445,0 0.445,0 0.891,0c-0.446,0.445 -0.446,0.445 -0.891,0.891c-0.891,0.891 -0.445,1.781 0.445,2.672c1.337,0.891 2.673,1.337 4.01,1.337c4.899,0.891 9.799,0.891 14.699,0.445c4.009,-0.445 8.464,-0.891 12.473,-2.227c1.336,-0.446 2.227,0 3.118,0.445c0.445,1.337 2.227,2.228 4.454,3.564c-0.445,0 -0.445,0 0,0Z" style="fill:#009cb5;fill-rule:nonzero;"/><path d="M108.675,115.971c0,0.446 -0.446,0.446 -0.446,0.891c-0.445,0.891 -0.445,1.337 0.446,1.782c0.891,0.445 1.781,0.891 2.672,0.891c2.673,0.445 5.346,0.445 8.018,0.445c3.118,0 6.237,-0.445 9.355,-0.891c1.782,-0.445 4.009,-0.89 5.791,-1.781l0.445,0c2.227,1.336 4.9,3.118 7.127,4.454l0.446,0c-0.891,0.446 -1.782,0.891 -2.673,1.336c-3.118,1.337 -6.682,2.228 -9.8,2.673c-4.454,0.891 -8.909,0.891 -13.363,0.891c-3.564,0 -7.127,-0.445 -10.691,-1.336c-1.336,-0.446 -3.118,-0.891 -4.009,-2.228c-0.891,-0.89 -1.336,-2.227 -0.446,-3.563c0.446,-0.891 1.337,-1.782 2.228,-2.227c0.891,-0.891 2.672,-1.337 4.9,-1.337Z" style="fill:#009cb5;fill-rule:nonzero;"/><path d="M93.975,143.144c0.891,0.445 2.227,0.445 3.118,0.89c4.454,0.891 8.463,1.337 12.918,2.228c6.236,0.891 12.027,0.891 18.263,0.891c8.464,-0.446 16.927,-1.337 24.945,-3.564c4.455,-1.336 8.909,-3.118 12.918,-5.791c1.337,-0.891 2.673,-2.227 4.009,-3.118c0,0 0.446,0 0.446,-0.445c0,0.89 -0.446,1.781 -0.446,2.672c-0.445,1.337 -1.336,2.673 -2.672,3.564c-2.673,2.227 -5.791,4.009 -8.909,5.345c-4.009,1.782 -8.464,2.673 -12.918,3.118c-5.346,0.891 -10.691,1.337 -16.036,0.891c-4.009,0 -8.464,-0.445 -12.473,-0.891c-5.791,-0.891 -11.582,-1.781 -17.372,-4.009c-1.782,-0.445 -3.564,-1.336 -5.791,-1.781l0,0Z" style="fill:#009cb5;fill-rule:nonzero;"/><path d="M150.101,92.363c0.891,-0.446 1.782,-0.891 2.673,-1.337c1.782,-0.891 3.563,-1.336 5.345,-1.336c4.455,0 7.573,2.673 8.464,7.127c0.891,5.345 -0.891,9.8 -5.346,13.363c-3.118,2.228 -6.236,4.009 -10.245,4.9c-0.891,0.446 -1.782,0.446 -2.673,0.446l-0.445,0l0.445,-0.446c2.673,-2.227 5.346,-4.454 7.573,-7.127c1.782,-2.227 3.118,-4.454 4.009,-7.127c0.445,-1.336 0.445,-2.673 0,-4.454c-0.891,-2.228 -2.227,-3.564 -4.454,-4.009c-1.782,0 -3.564,0 -5.346,0c0,0.445 0,0 0,0Z" style="fill:#009cb5;fill-rule:nonzero;"/></g></svg>
