<?xml version="1.0" encoding="utf-8"?>
<!-- Generator: Adobe Illustrator 21.1.0, SVG Export Plug-In . SVG Version: 6.00 Build 0)  -->
<svg version="1.1" id="Calque_1" xmlns="http://www.w3.org/2000/svg" xmlns:xlink="http://www.w3.org/1999/xlink" x="0px" y="0px"
	 viewBox="0 0 32 32" style="enable-background:new 0 0 32 32;" xml:space="preserve">
<style type="text/css">
	.st0{fill:#4966A7;}
	.st1{fill:#F50051;}
</style>
<g>
	<path class="st0" d="M10.4,23.9c-0.3,0-0.6,0-0.9,0c-0.4,0-0.8,0.1-1.2,0.4c0,0,0,0,0,0c-0.3,0.2-0.3,0.5,0,0.8
		c0.2,0.1,0.4,0.2,0.6,0.3c0.5,0.2,1,0.3,1.6,0.4c1.1,0.2,2.2,0.3,3.3,0.4c1.2,0.1,2.3,0.1,3.5,0c1.3-0.1,2.7-0.2,4-0.5
		c0.6-0.2,1.3-0.4,1.8-0.7c0.2-0.2,0.4-0.3,0.5-0.6c0.1-0.2,0.1-0.5,0-0.7c0,0,0-0.1,0-0.1c0.3,0.1,0.6,0.3,0.8,0.6
		c0.2,0.3,0.2,0.7,0,1.1c-0.2,0.4-0.5,0.6-0.9,0.9c-0.7,0.4-1.4,0.6-2.2,0.8c-1,0.3-2,0.4-3.1,0.5c-1.3,0.1-2.6,0.2-4,0.2
		c-1.1,0-2.1-0.1-3.2-0.2c-0.8-0.1-1.7-0.2-2.5-0.4c-0.6-0.2-1.3-0.4-1.8-0.7C6.3,26,6,25.8,5.7,25.4c-0.3-0.4-0.2-0.9,0.2-1.2
		c0.3-0.3,0.7-0.5,1-0.6c0.8-0.3,1.5-0.3,2.3-0.2c0.1,0,0.3,0.1,0.4,0.1C9.9,23.7,10.1,23.8,10.4,23.9z"/>
	<path class="st1" d="M15.8,16.5c0,0-0.1-0.1-0.1-0.1c-0.9-0.6-1.7-1.3-2.4-2.1c-0.5-0.6-1-1.2-1.2-1.9c-0.2-0.5-0.3-1-0.2-1.5
		c0.1-0.4,0.3-0.8,0.5-1.1c0.5-0.6,1-1.1,1.6-1.6c0.7-0.6,1.4-1.1,2-1.7c0.5-0.5,1-1,1.4-1.6c0.3-0.4,0.4-0.9,0.4-1.4
		c0-0.3,0-0.5-0.1-0.8c0,0,0-0.1,0-0.1c0,0,0,0,0,0c0.1,0.2,0.2,0.4,0.3,0.6c0.3,0.6,0.4,1.1,0.4,1.8c0,0.6-0.2,1.1-0.5,1.7
		c-0.4,0.7-0.9,1.4-1.5,2c-0.6,0.6-1.2,1.3-1.8,1.9c-0.3,0.4-0.6,0.8-0.8,1.3c-0.1,0.4-0.1,0.8,0,1.2C14.4,14.1,15,15.3,15.8,16.5
		C15.7,16.5,15.8,16.5,15.8,16.5C15.8,16.5,15.8,16.5,15.8,16.5z"/>
	<path class="st0" d="M12.8,16c-0.4,0.1-0.7,0.2-1.1,0.3c-0.3,0.1-0.7,0.2-1,0.4c-0.1,0.1-0.2,0.1-0.2,0.2c-0.1,0.1-0.1,0.2,0.1,0.2
		c0.2,0.1,0.3,0.1,0.5,0.1c0.5,0.1,0.9,0.1,1.4,0.1c1.4,0.1,2.9,0,4.3-0.1c0.8,0,1.6-0.1,2.3-0.2c0.7-0.1,1.4-0.2,2.1-0.3
		c0,0,0,0,0.1,0c-0.1,0.1-0.3,0.2-0.4,0.3c-0.4,0.3-0.8,0.6-1.2,0.9c0,0-0.1,0-0.1,0.1c-0.9,0.1-1.8,0.3-2.7,0.4
		c-1.4,0.2-2.8,0.2-4.2,0.2c-1,0-2-0.1-3-0.2c-0.5-0.1-1.1-0.2-1.6-0.5c-0.1-0.1-0.3-0.2-0.4-0.3c-0.3-0.3-0.2-0.7,0.1-0.9
		c0.3-0.3,0.7-0.4,1-0.5c0.9-0.3,1.8-0.3,2.7-0.4C12,16.1,12.4,16,12.8,16C12.8,16,12.8,16,12.8,16z"/>
	<path class="st1" d="M16.6,17.1c0.3-0.2,0.5-0.5,0.6-0.8c0.2-0.3,0.3-0.6,0.3-0.9c0-0.4-0.1-0.7-0.3-1.1c-0.3-0.4-0.5-0.8-0.8-1.2
		c-0.3-0.4-0.5-0.9-0.5-1.4c0-0.4,0-0.7,0.1-1.1c0.3-0.8,0.8-1.5,1.5-2c0.8-0.5,1.6-0.9,2.5-1.1c0.7-0.2,1.3-0.3,2-0.4
		c0,0-0.1,0-0.1,0.1c-0.8,0.5-1.5,1-2.2,1.5c-0.5,0.4-0.9,0.8-1.3,1.2c-0.1,0.1-0.2,0.3-0.3,0.4c-0.3,0.4-0.3,0.9-0.1,1.3
		c0.1,0.3,0.3,0.6,0.4,0.9c0.2,0.3,0.4,0.7,0.5,1c0.3,0.8,0.2,1.5-0.3,2.1c-0.4,0.6-1,0.9-1.6,1.1C17,17,16.8,17.1,16.6,17.1
		C16.6,17.1,16.6,17.1,16.6,17.1z"/>
	<path class="st0" d="M20.4,20.7c-0.2,0.1-0.3,0.1-0.4,0.2c-1,0.4-2,0.6-3.1,0.7c-1,0.1-1.9,0.2-2.9,0.1c-1,0-2-0.1-3-0.4
		c-0.4-0.1-0.7-0.2-1-0.5c-0.1-0.1-0.2-0.2-0.2-0.2c-0.1-0.2-0.1-0.4,0.1-0.6c0.2-0.3,0.5-0.4,0.8-0.6c0.3-0.2,0.6-0.3,0.9-0.3
		c0.1,0,0.1,0,0.2,0c-0.1,0.1-0.1,0.1-0.2,0.2c-0.2,0.2-0.1,0.4,0.1,0.6c0.3,0.2,0.6,0.3,0.9,0.3c1.1,0.2,2.2,0.2,3.3,0.1
		c0.9-0.1,1.9-0.2,2.8-0.5c0.3-0.1,0.5,0,0.7,0.1C19.5,20.2,19.9,20.4,20.4,20.7C20.3,20.7,20.3,20.7,20.4,20.7z"/>
	<path class="st0" d="M12.4,21.9c0,0.1-0.1,0.1-0.1,0.2c-0.1,0.2-0.1,0.3,0.1,0.4c0.2,0.1,0.4,0.2,0.6,0.2c0.6,0.1,1.2,0.1,1.8,0.1
		c0.7,0,1.4-0.1,2.1-0.2c0.4-0.1,0.9-0.2,1.3-0.4c0,0,0.1,0,0.1,0c0.5,0.3,1.1,0.7,1.6,1c0,0,0,0,0.1,0c-0.2,0.1-0.4,0.2-0.6,0.3
		c-0.7,0.3-1.5,0.5-2.2,0.6c-1,0.2-2,0.2-3,0.2c-0.8,0-1.6-0.1-2.4-0.3c-0.3-0.1-0.7-0.2-0.9-0.5c-0.2-0.2-0.3-0.5-0.1-0.8
		c0.1-0.2,0.3-0.4,0.5-0.5C11.5,22,11.9,21.9,12.4,21.9z"/>
	<path class="st0" d="M9.1,28c0.2,0.1,0.5,0.1,0.7,0.2c1,0.2,1.9,0.3,2.9,0.5c1.4,0.2,2.7,0.2,4.1,0.2c1.9-0.1,3.8-0.3,5.6-0.8
		c1-0.3,2-0.7,2.9-1.3c0.3-0.2,0.6-0.5,0.9-0.7c0,0,0.1,0,0.1-0.1c0,0.2-0.1,0.4-0.1,0.6c-0.1,0.3-0.3,0.6-0.6,0.8
		c-0.6,0.5-1.3,0.9-2,1.2c-0.9,0.4-1.9,0.6-2.9,0.7c-1.2,0.2-2.4,0.3-3.6,0.2c-0.9,0-1.9-0.1-2.8-0.2c-1.3-0.2-2.6-0.4-3.9-0.9
		C10,28.3,9.6,28.1,9.1,28C9.1,28,9.1,28,9.1,28z"/>
	<path class="st0" d="M21.7,16.6c0.2-0.1,0.4-0.2,0.6-0.3c0.4-0.2,0.8-0.3,1.2-0.3c1,0,1.7,0.6,1.9,1.6c0.2,1.2-0.2,2.2-1.2,3
		c-0.7,0.5-1.4,0.9-2.3,1.1c-0.2,0.1-0.4,0.1-0.6,0.1c0,0-0.1,0-0.1,0c0,0,0,0,0.1-0.1c0.6-0.5,1.2-1,1.7-1.6c0.4-0.5,0.7-1,0.9-1.6
		c0.1-0.3,0.1-0.6,0-1c-0.2-0.5-0.5-0.8-1-0.9C22.5,16.6,22.1,16.6,21.7,16.6C21.7,16.7,21.7,16.6,21.7,16.6z"/>
</g>
</svg>
