<?xml version="1.0" encoding="UTF-8" standalone="no"?><!DOCTYPE svg PUBLIC "-//W3C//DTD SVG 1.1//EN" "http://www.w3.org/Graphics/SVG/1.1/DTD/svg11.dtd"><svg width="100%" height="100%" viewBox="0 0 250 250" version="1.1" xmlns="http://www.w3.org/2000/svg" xmlns:xlink="http://www.w3.org/1999/xlink" xml:space="preserve" xmlns:serif="http://www.serif.com/" style="fill-rule:evenodd;clip-rule:evenodd;stroke-linejoin:round;stroke-miterlimit:1.41421;"><text x="49.558px" y="197.546px" style="font-family:'OpenSans-Semibold', 'Open Sans', sans-serif;font-weight:600;font-size:37.414px;fill:#0062bf;">J<tspan x="68.221px 100.44px 131.198px 150.72px 182.116px " y="197.546px 197.546px 197.546px 197.546px 197.546px ">AX-RS</tspan></text><g><path d="M163,92c2.846,-2.45 5.843,0.544 8,1c-4.852,0.372 -3.408,-1.515 -8,-1Z" style="fill:#ffa41a;"/><path d="M106,93c0,-6.032 -0.55,-15.494 -2,-17c4.417,0.922 2.739,15.004 8,16c-5.734,3.499 -1.854,19.402 -6,20c-0.165,-5.885 0,-12.968 0,-19Z" style="fill:#ffa41a;"/><path d="M116.667,90.167c0,-5.027 -0.459,-12.912 -1.667,-14.167c3.681,0.769 2.282,12.503 6.667,13.333c-4.779,2.916 -1.545,16.168 -5,16.667c-0.138,-4.904 0,-10.807 0,-15.833Z" style="fill:#ffa41a;"/><path d="M127.889,92.278c0,-4.357 -0.398,-11.19 -1.445,-12.278c3.191,0.666 1.979,10.836 5.778,11.556c-4.141,2.526 -1.338,14.012 -4.333,14.444c-0.12,-4.25 0,-9.366 0,-13.722Z" style="fill:#ffa41a;"/><path d="M139.722,91.333c0,-4.021 -0.321,-10.329 -1.166,-11.333c2.576,0.615 1.597,10.002 4.666,10.667c-3.345,2.332 -1.081,12.934 -3.5,13.333c-0.096,-3.923 0,-8.645 0,-12.667Z" style="fill:#ffa41a;"/><path d="M149.444,91.389c0,-3.686 -0.397,-9.469 -1.444,-10.389c3.19,0.564 1.978,9.169 5.778,9.778c-4.142,2.138 -1.339,11.856 -4.334,12.222c-0.119,-3.596 0,-7.925 0,-11.611Z" style="fill:#ffa41a;"/><path d="M188,79c7.477,-3.539 18.465,-11.987 25,-12c2.96,-0.006 3,5.826 3,10c0,4.174 -1,11.197 -1,18c0,6.803 1,15.927 1,21c0,5.073 0.751,18.038 -2,16c-5.765,-4.271 -7.267,-17.611 -17,-20c7.116,-1.426 9.234,5.187 14,12c1.083,1.548 3,2.976 3,0c0,-16.103 -4,-23.174 -4,-29c0,-19.929 2,-15.472 2,-19c-0.675,-4.316 -16.133,2.439 -24,3Z"/><path d="M89,74c-1.413,-2.738 35.79,-19.548 82,3c-42.563,-12.956 -69.263,-4.7 -74,-3c-2.789,1.001 -6.96,2.017 -8,0Z" style="fill:#6599ff;"/><path d="M39,99c-0.066,-1.707 -0.56,-3.63 2,-7c5.841,-7.691 32.433,-34 79,-34c2.288,0 3.454,-1.037 5,-2c7.173,-4.472 12.913,-3.185 21,-11c0.473,-0.457 1.115,-1 2,-1c5.676,0 8.428,12.518 15,13.5c-8.484,0.699 -11.808,-11.957 -15,-8.5c-2.794,3.026 -8.084,8.03 -11,10c-0.774,0.523 -0.678,0.733 0,1c3.235,1.275 9.826,4.056 16,5c1.674,0.256 2.468,1 0,1c-7.084,0 -18.765,-8.129 -55,-1.5c-22.514,4.119 -43.027,18.331 -50,29.5c-2.45,3.924 -8.791,10.369 -9,5Z"/><path d="M68,119c5.549,0.329 11.625,0.785 15.5,-3c3.594,-3.511 4.105,-6.912 1.5,-11.5c3.484,1.224 6.17,6.676 2.5,11.5c-3.67,4.824 -7.747,6 -11,6c-5.559,0 -8.5,-3 -8.5,-3" style="fill:#6599ff;"/><path d="M38,105c3.256,0 4.488,0.94 6,2c10.505,7.368 19.585,20 34.5,20c11.201,0 14.5,-8 14.5,-8c0,0 -3.729,9 -14.5,9c-7.632,0 -15.164,2.964 -42.5,-19c-1.964,-1.578 -1.374,-4 2,-4"/><path d="M67,92c0,-3.329 2.363,-7 7,-7c4.637,0 5,4.482 5,6c0,1.518 -0.379,7 -7,7c-4.999,0 -5,-6 -5,-6Zm8,2c0.432,-0.432 0.575,-2.311 -1,-4c-1.377,-1.476 -3.175,-4.753 -5,0c-0.292,0.759 -0.5,3 1,3c2.402,0 3.524,2.476 5,1Z"/><path d="M129,129c2.111,-4.3 9.677,-1.852 12,-1c2.323,0.852 7.457,2.718 11,5c2.423,1.561 2,-1.852 2,-3c0,-1.148 1.427,-8.972 9,-13c-6.854,6.534 -7,11 -7,14c0,3 -1.474,5 -4,5c-2.526,0 -4.297,-4 -13,-4c-8.703,0 -10.643,-1.689 -10,-3Z"/><path d="M159.194,83.218c0,0 4.485,6.655 -0.194,16.782c-0.359,-6.603 0.194,-16.782 0.194,-16.782Z" style="fill:#ffa41a;"/><path d="M189,86c0,0 18.266,6.751 2,18c4.252,-11.213 -2,-18 -2,-18Z" style="fill:#6599ff;"/></g></svg>