<?xml version="1.0" encoding="UTF-8" standalone="no"?><!DOCTYPE svg PUBLIC "-//W3C//DTD SVG 1.1//EN" "http://www.w3.org/Graphics/SVG/1.1/DTD/svg11.dtd"><svg width="100%" height="100%" viewBox="0 0 250 250" version="1.1" xmlns="http://www.w3.org/2000/svg" xmlns:xlink="http://www.w3.org/1999/xlink" xml:space="preserve" xmlns:serif="http://www.serif.com/" style="fill-rule:evenodd;clip-rule:evenodd;stroke-linejoin:round;stroke-miterlimit:1.41421;"><path d="M60,200l0,-40c-16.558,0 -30,-13.443 -30,-30c0,-16.557 13.443,-30 30,-30c16.557,0 30,13.443 30,30c0,13.052 -8.353,24.168 -20,28.29l0,31.71l30,0l0,-120c0,-16.557 13.443,-30 30,-30c16.557,0 30,13.443 30,30c0,16.557 -13.443,30 -30,30c-7.68,0 -14.691,-2.892 -20,-7.647l0,97.647l40,0c0,-16.558 13.443,-30 30,-30c16.557,0 30,13.443 30,30c0,16.557 -13.443,30 -30,30c-13.052,0 -24.168,-8.353 -28.29,-20l-91.71,0Zm50,-130c0,-11.038 8.962,-20 20,-20c11.038,0 20,8.962 20,20c0,11.038 -8.962,20 -20,20c-11.038,0 -20,-8.962 -20,-20Z"/><path d="M180,170l17,30l-34,0l17,-30Z" style="fill:#fff;"/></svg>