<?xml version="1.0" encoding="UTF-8"?>
<svg width="16px" height="16px" viewBox="0 0 16 16" version="1.1" xmlns="http://www.w3.org/2000/svg" xmlns:xlink="http://www.w3.org/1999/xlink">
    <!-- Generator: Sketch 47.1 (45422) - http://www.bohemiancoding.com/sketch -->
    <title>COBOL_PROJECT</title>
    <desc>Created with Sketch.</desc>
    <defs></defs>
    <g id="Projects" stroke="none" stroke-width="1" fill="none" fill-rule="evenodd">
        <g id="COBOL_PROJECT">
            <rect id="Rectangle-1" fill="#44117D" x="0" y="0" width="16" height="16" rx="8"></rect>
            <g id="cobol" transform="translate(1.000000, 4.000000)" fill-rule="nonzero" fill="#FFFFFF">
                <path d="M13.9857366,3.48181336 C13.916787,3.00504071 13.7007449,2.55052061 13.5495154,2.08605788 L13.3141675,2.70155385 C12.8591001,2.44115171 12.4481605,2.20631632 12.0376806,1.9719544 C12.0225117,1.90377638 12.0068831,1.83607183 11.9912545,1.76836727 C12.2656739,1.50512438 12.5400933,1.24235494 12.8218673,0.972957092 C12.4978042,1.14861017 12.1829344,1.31858175 11.8676049,1.48950025 C11.8404847,1.45683162 11.8138242,1.42368953 11.786704,1.39102089 L12.7239589,0.219211257 C12.2780848,0.5217512 11.8175015,0.802512054 11.392772,1.1334595 C11.0912324,1.36829489 10.9004719,1.30532492 10.71155,1.0127276 C10.4978062,0.679886318 10.2762482,0.352253078 10.0422792,0 C9.42908743,0.56104825 9.17075627,1.24472224 9.23005292,2.07090721 C9.18132854,2.067593 9.13168483,2.06427879 9.08158145,2.06096458 C9.0618159,1.69450775 9.04205035,1.327104 9.01906715,0.894362991 C8.68075445,0.820976933 8.30291065,0.71255495 7.91863156,0.661421439 C6.54975219,0.481507232 5.29532917,0.726758703 4.36864656,1.87536888 C4.04320446,2.27922892 3.82164641,2.77778066 3.58216147,3.24887181 C3.32199166,3.76020692 3.13352942,4.31320638 2.84807808,4.80702353 C2.21420144,5.90402673 1.36060541,6.70133074 0,6.70038383 C0.522178293,7.36464601 1.11468518,7.49437363 1.83727697,7.22260848 C2.5299906,6.96220634 3.03470166,6.4887479 3.46402783,5.89834523 C3.57848416,5.74163049 3.70581109,5.59391145 3.82578339,5.44429859 C4.15995911,5.62042513 4.23258602,5.88319456 4.21741711,6.191416 C4.20408685,6.46554844 4.19443391,6.74062779 4.17834567,7.01476023 C4.16363642,7.27090124 4.2647625,7.37979668 4.52447265,7.36748677 C4.90369545,7.3499688 5.2833779,7.36417256 5.66260069,7.36322564 C6.125942,7.36133181 6.28498574,7.21124548 6.31210591,6.7268975 C6.32543617,6.48638061 6.31440423,6.24491681 6.31440423,6.02617901 C6.3658866,5.99966534 6.37783786,5.98735542 6.38978913,5.98735542 C6.75476233,5.98830233 7.11973554,5.99161654 7.48516841,5.99256346 C8.35393336,5.99445729 8.35301403,5.99351038 8.47528465,6.89024066 C8.4886149,6.98919347 8.50240482,7.09761546 8.55066954,7.18047068 C8.59433762,7.25575057 8.68581076,7.34949534 8.757978,7.35138918 C9.3132521,7.36606639 9.86898587,7.35991143 10.4316146,7.35991143 C10.4440255,7.19325406 10.4578154,7.09382779 10.4587348,6.99487497 C10.4601138,6.4887479 10.4339129,5.97978008 10.4651701,5.47507339 C10.5157331,4.6593045 10.7942895,4.42210182 11.5766376,4.40647769 C12.1654672,4.39511469 12.7565951,4.37807018 13.340828,4.30705142 C13.8427811,4.24597528 14.0602021,3.99598922 13.9857366,3.48181336 Z" id="Shape"></path>
            </g>
        </g>
    </g>
</svg>