<?xml version="1.0" encoding="UTF-8"?>
<svg width="180px" height="180px" viewBox="0 0 180 180" version="1.1" xmlns="http://www.w3.org/2000/svg" xmlns:xlink="http://www.w3.org/1999/xlink">
    <!-- Generator: Sketch 48.2 (47327) - http://www.bohemiancoding.com/sketch -->
    <title>DotNet</title>
    <desc>Created with Sketch.</desc>
    <defs>
        <linearGradient x1="49.9972467%" y1="-19.5160457%" x2="49.9972467%" y2="129.625092%" id="linearGradient-1">
            <stop stop-color="#0994DC" offset="0%"></stop>
            <stop stop-color="#66CEF5" offset="35.000601%"></stop>
            <stop stop-color="#66CEF5" offset="35.000601%"></stop>
            <stop stop-color="#127BCA" offset="84.616101%"></stop>
            <stop stop-color="#127BCA" offset="84.616101%"></stop>
            <stop stop-color="#127BCA" offset="100%"></stop>
        </linearGradient>
        <linearGradient x1="50.0007616%" y1="-19.5161868%" x2="50.0007616%" y2="129.624154%" id="linearGradient-2">
            <stop stop-color="#0E76BC" offset="0%"></stop>
            <stop stop-color="#36AEE8" offset="36.0001%"></stop>
            <stop stop-color="#36AEE8" offset="36.0001%"></stop>
            <stop stop-color="#00ADEF" offset="84.616101%"></stop>
            <stop stop-color="#00ADEF" offset="84.616101%"></stop>
            <stop stop-color="#00ADEF" offset="100%"></stop>
        </linearGradient>
        <linearGradient x1="49.9991979%" y1="110.921751%" x2="49.9991979%" y2="-6.21395776%" id="linearGradient-3">
            <stop stop-color="#1C63B7" offset="0%"></stop>
            <stop stop-color="#33BDF2" offset="50%"></stop>
            <stop stop-color="#33BDF2" stop-opacity="0.41960785" offset="100%"></stop>
        </linearGradient>
        <linearGradient x1="50.0009899%" y1="-19.5149993%" x2="50.0009899%" y2="129.627315%" id="linearGradient-4">
            <stop stop-color="#166AB8" offset="0%"></stop>
            <stop stop-color="#36AEE8" offset="39.999399%"></stop>
            <stop stop-color="#36AEE8" offset="39.999399%"></stop>
            <stop stop-color="#0798DD" offset="84.616101%"></stop>
            <stop stop-color="#0798DD" offset="84.616101%"></stop>
            <stop stop-color="#0798DD" offset="100%"></stop>
        </linearGradient>
        <linearGradient x1="49.9985422%" y1="-19.5211325%" x2="49.9985422%" y2="129.626892%" id="linearGradient-5">
            <stop stop-color="#124379" offset="0%"></stop>
            <stop stop-color="#1487CB" offset="38.9999%"></stop>
            <stop stop-color="#1487CB" offset="38.9999%"></stop>
            <stop stop-color="#165197" offset="78.022802%"></stop>
            <stop stop-color="#165197" offset="78.022802%"></stop>
            <stop stop-color="#165197" offset="100%"></stop>
        </linearGradient>
        <linearGradient x1="0.000304652977%" y1="50.000544%" x2="100.000291%" y2="50.000544%" id="linearGradient-6">
            <stop stop-color="#33BDF2" stop-opacity="0.69803923" offset="0%"></stop>
            <stop stop-color="#1DACD8" offset="100%"></stop>
        </linearGradient>
        <linearGradient x1="50.0095709%" y1="94.6864084%" x2="50.0095709%" y2="-3.02458407%" id="linearGradient-7">
            <stop stop-color="#136AB4" offset="0%"></stop>
            <stop stop-color="#59CAF5" stop-opacity="0.54901963" offset="60.000002%"></stop>
            <stop stop-color="#59CAF5" stop-opacity="0.23529412" offset="100%"></stop>
        </linearGradient>
        <linearGradient x1="-0.000760861053%" y1="49.999714%" x2="99.9992241%" y2="49.999714%" id="linearGradient-8">
            <stop stop-color="#05A1E6" stop-opacity="0.24705882" offset="0%"></stop>
            <stop stop-color="#05A1E6" offset="100%"></stop>
        </linearGradient>
        <linearGradient x1="49.9983236%" y1="124.313712%" x2="49.9983236%" y2="-9.42137278%" id="linearGradient-9">
            <stop stop-color="#318ED5" offset="0%"></stop>
            <stop stop-color="#38A7E4" offset="100%"></stop>
        </linearGradient>
        <linearGradient x1="49.99857%" y1="91.1999524%" x2="49.99857%" y2="-76.7854074%" id="linearGradient-10">
            <stop stop-color="#05A1E6" offset="0%"></stop>
            <stop stop-color="#05A1E6" stop-opacity="0.54901963" offset="100%"></stop>
        </linearGradient>
        <linearGradient x1="50.0000694%" y1="100.01049%" x2="50.0000694%" y2="0.0101898204%" id="linearGradient-11">
            <stop stop-color="#1959A6" offset="0%"></stop>
            <stop stop-color="#05A1E6" offset="50%"></stop>
            <stop stop-color="#05A1E6" offset="50%"></stop>
            <stop stop-color="#7EC5EA" offset="91.758698%"></stop>
            <stop stop-color="#7EC5EA" offset="100%"></stop>
        </linearGradient>
        <linearGradient x1="59.8041209%" y1="94.5677442%" x2="38.4710575%" y2="5.75513731%" id="linearGradient-12">
            <stop stop-color="#165096" offset="0%"></stop>
            <stop stop-color="#0D82CA" offset="100%"></stop>
        </linearGradient>
        <linearGradient x1="49.9946843%" y1="76.9980959%" x2="49.9946843%" y2="-3.29893613%" id="linearGradient-13">
            <stop stop-color="#05A1E6" offset="0%"></stop>
            <stop stop-color="#0495D6" offset="87.362701%"></stop>
            <stop stop-color="#0495D6" offset="100%"></stop>
        </linearGradient>
        <linearGradient x1="65.2631169%" y1="-4.16143813%" x2="34.2626975%" y2="105.843625%" id="linearGradient-14">
            <stop stop-color="#38A7E4" stop-opacity="0.32941177" offset="0%"></stop>
            <stop stop-color="#0E88D3" offset="96.153301%"></stop>
            <stop stop-color="#0E88D3" offset="96.153301%"></stop>
            <stop stop-color="#0E88D3" offset="100%"></stop>
        </linearGradient>
        <linearGradient x1="50.016714%" y1="-0.295776148%" x2="50.016714%" y2="101.881944%" id="linearGradient-15">
            <stop stop-color="#168CD4" offset="0%"></stop>
            <stop stop-color="#1C87CC" offset="50%"></stop>
            <stop stop-color="#154B8D" offset="100%"></stop>
        </linearGradient>
        <linearGradient x1="16.6738062%" y1="205.564966%" x2="87.8125992%" y2="-19.8362753%" id="linearGradient-16">
            <stop stop-color="#97D6EE" offset="0%"></stop>
            <stop stop-color="#55C1EA" offset="70.329303%"></stop>
            <stop stop-color="#55C1EA" offset="100%"></stop>
        </linearGradient>
        <linearGradient x1="6.89015912%" y1="6.30038251%" x2="75.7828966%" y2="116.770678%" id="linearGradient-17">
            <stop stop-color="#7ACCEC" offset="0%"></stop>
            <stop stop-color="#3FB7ED" offset="100%"></stop>
        </linearGradient>
        <linearGradient x1="49.9966533%" y1="6.36281892%" x2="49.9966533%" y2="127.96135%" id="linearGradient-18">
            <stop stop-color="#1DA7E7" offset="0%"></stop>
            <stop stop-color="#37ABE7" stop-opacity="0" offset="100%"></stop>
        </linearGradient>
    </defs>
    <g id="Page-1" stroke="none" stroke-width="1" fill="none" fill-rule="evenodd">
        <g id="DotNet" fill-rule="nonzero">
            <g id="Microsoft_.NET_Logo" transform="translate(0.000000, 54.000000)">
                <path d="M62.4237486,14.5928 C68.8882057,34.3612 71.3372914,69.6262286 90.2404343,69.6262286 C91.6798629,69.6262286 93.1337486,69.4854286 94.5934057,69.2078286 C77.40952,65.2011429 75.3729486,30.3197143 64.8872343,12.256 C64.0650629,13.0032 63.24872,13.7820571 62.4237486,14.5928" id="path12339" fill="url(#linearGradient-1)"></path>
                <path d="M64.8872343,12.256 C75.3729486,30.3197143 77.40952,65.2011429 94.5934057,69.2078286 C95.9434057,68.9597714 97.29632,68.5847429 98.6520914,68.1116571 C83.2278629,60.5538857 78.96432,26.6822286 67.0564914,10.3752 C66.3352914,10.9754286 65.6112914,11.6042857 64.8872343,12.256" id="path12367" fill="url(#linearGradient-2)"></path>
                <path d="M79.9954057,1.51331429 C78.5588343,1.51331429 77.1019771,1.65405714 75.6395771,1.93171429 C71.8144914,2.65285714 67.9290057,4.29988571 64.0116343,6.79222857 C65.0817486,7.848 66.09992,9.05657143 67.0576343,10.3749714 C71.0414057,7.06914286 74.9991771,4.62594286 78.9426057,3.15754286 C80.42232,2.60948571 81.8964914,2.19708571 83.3762057,1.92594286 C82.3088914,1.65451429 81.1838629,1.51331429 79.9954057,1.51331429" id="path12379" fill="#14559A"></path>
                <path d="M110.692663,61.1450857 C112.270549,59.8904 113.851349,58.5027429 115.435006,56.9884571 C108.866663,37.3121143 106.515691,1.5424 87.4798057,1.5424 C86.1182629,1.5424 84.7451771,1.66931429 83.3749486,1.92314286 C100.714606,6.23582857 102.935806,43.9613143 110.692663,61.1450857" id="path12459" fill="url(#linearGradient-3)"></path>
                <path d="M83.37552,1.92451429 C82.3082057,1.65337143 81.1832343,1.51217143 79.99472,1.51217143 L87.4804343,1.5396 C86.1188343,1.5396 84.7457486,1.66651429 83.37552,1.92337143" id="path12521" fill="#3092C4"></path>
                <path d="M110.360206,65.3250857 C109.615977,64.6154857 108.909349,63.8366286 108.214034,63.0058286 C105.012034,65.2731429 101.821634,66.9924 98.65152,68.1116571 C99.7792914,68.6627429 100.961977,69.0724 102.216949,69.3262286 C103.188949,69.5246857 104.195806,69.6262286 105.254377,69.6262286 C108.811234,69.6262286 111.623691,69.2050857 114.01792,68.0569714 C112.699749,67.3443429 111.491006,66.4212571 110.360206,65.3250857" id="path12525" fill="#1969BC"></path>
                <path d="M78.9412343,3.1608 C94.4722629,11.2839429 95.8222629,48.0690857 108.21472,63.0058286 C109.04552,62.4203429 109.867634,61.8000571 110.689749,61.1450857 C102.932949,43.9613143 100.714606,6.2328 83.3778629,1.92314286 C81.8980343,2.20005714 80.4210629,2.60994286 78.9412343,3.1608" id="path12553" fill="url(#linearGradient-4)"></path>
                <path d="M67.0564914,10.3752 C78.96432,26.6822286 83.2278629,60.5538857 98.6520914,68.1116571 C101.82232,66.9924 105.012777,65.2731429 108.21472,63.0058286 C95.8222629,48.0690857 94.4722629,11.2839429 78.9412343,3.1608 C74.99792,4.62617143 71.0402057,7.06937143 67.0564914,10.3752" id="path12581" fill="url(#linearGradient-5)"></path>
                <path d="M54.8050629,14.1166857 C52.9386629,18.3370857 51.03192,23.8841143 48.7270629,31.1246286 C53.3107771,24.6657714 57.8800914,19.1013714 62.4234057,14.5928 C61.7974629,12.6686286 61.1253486,10.8946286 60.4012914,9.31365714 C58.5435771,10.7358857 56.6714057,12.3369714 54.8050629,14.1166857" id="path12651" fill="url(#linearGradient-6)"></path>
                <path d="M62.05632,8.0968 C61.5082057,8.48908571 60.9573486,8.89017143 60.40352,9.31411429 C61.1274629,10.8949143 61.7966629,12.6690857 62.4227771,14.5930286 C63.2475771,13.7853143 64.0667771,13.0036571 64.8860343,12.2564571 C64.00632,10.7448571 63.0716914,9.34868571 62.05632,8.0968" id="path12655" fill="#2B74B1"></path>
                <path d="M64.0116343,6.79222857 C63.3596914,7.20485714 62.7107771,7.64028571 62.0558629,8.09605714 C63.0712343,9.348 64.0058629,10.7441714 64.8886057,12.2587429 C65.61272,11.6038286 66.3366629,10.9721714 67.0578629,10.3749714 C66.1001486,9.0568 65.0819771,7.848 64.0116343,6.79222857" id="path12659" fill="#125A9E"></path>
                <path d="M169.946434,0.00794285714 C161.162549,33.8823429 142.816149,61.0904 127.435177,67.9501143 C127.435177,67.9501143 127.406034,67.9501143 127.406034,67.9501143 C127.126263,68.0770286 126.849291,68.1924571 126.575291,68.3048 C126.537577,68.3276571 126.503291,68.3305143 126.474206,68.3442286 C126.393406,68.3768 126.318434,68.4019429 126.237634,68.4342286 C126.19992,68.4570857 126.165634,68.4645143 126.131063,68.4782286 C126.001349,68.5245143 125.87432,68.5636571 125.747406,68.6144 C125.692549,68.6372571 125.640777,68.6515429 125.588606,68.6698286 C125.530891,68.6926857 125.464434,68.7138286 125.398206,68.7321714 C125.340549,68.7550286 125.280091,68.7716 125.213577,68.7967429 C125.15872,68.8196 125.101006,68.8293143 125.049291,68.8521714 C124.936663,68.8847429 124.833063,68.9121714 124.720434,68.9513714 C124.674149,68.9513714 124.63112,68.9765143 124.581977,68.9885143 C124.51272,69.0113714 124.43472,69.0279429 124.359749,69.0485143 C124.307749,69.0713714 124.264663,69.0788 124.209749,69.0902286 C124.131749,69.1130857 124.045177,69.1342286 123.967406,69.1525714 C123.863577,69.1754286 123.771291,69.1965714 123.673177,69.2172 C124.368377,69.474 125.092434,69.6037143 125.874206,69.6037143 C140.459006,69.6037143 155.16472,43.466 179.496891,0 L169.942949,0 L169.946434,0.00794285714 Z" id="path12741" fill="url(#linearGradient-7)"></path>
                <path d="M45.5597486,2.888 C45.5688914,2.888 45.58032,2.86514286 45.5860343,2.86514286 C45.5974629,2.86514286 45.6151771,2.86514286 45.6208914,2.84228571 C45.6208914,2.84228571 45.63232,2.84228571 45.6391771,2.84228571 C45.71992,2.81485714 45.7949486,2.78228571 45.8756914,2.75228571 C45.8962629,2.75228571 45.90712,2.75228571 45.9219771,2.72942857 C45.9425486,2.72942857 45.9625486,2.70657143 45.9826629,2.70371429 C46.0692343,2.67628571 46.1557486,2.64371429 46.2365486,2.61371429 C46.2365486,2.61371429 46.2456914,2.61371429 46.2502629,2.61371429 C46.4436343,2.55605714 46.6223771,2.48451429 46.8098629,2.4176 C46.8361486,2.4176 46.8618629,2.39474286 46.8934057,2.39474286 C46.9714057,2.3696 47.0522057,2.3416 47.1328343,2.3232 C47.1705486,2.30034286 47.2078629,2.30034286 47.2424343,2.28834286 C47.3259771,2.2632 47.4070057,2.2352 47.4847771,2.2168 C47.5196343,2.2168 47.5512343,2.19394286 47.5770629,2.19165714 C47.8453486,2.11782857 48.11072,2.04857143 48.3790057,1.98394286 C48.41672,1.98394286 48.4482629,1.96108571 48.4886057,1.9588 C48.5663771,1.93594286 48.6386629,1.92394286 48.7222629,1.91251429 C48.75712,1.88965714 48.7972914,1.88965714 48.8376914,1.87765714 C48.9154629,1.8548 48.9904343,1.85251429 49.0742057,1.83365714 C49.0947771,1.83365714 49.1056343,1.83365714 49.1290629,1.83365714 C49.2906057,1.80108571 49.4550629,1.77365714 49.6166057,1.74365714 C49.6457486,1.74365714 49.6828343,1.74365714 49.7146629,1.74365714 C49.7924343,1.7208 49.8616914,1.71851429 49.9396914,1.70422857 C49.9825486,1.70422857 50.0262057,1.68137143 50.0666057,1.68137143 C50.1386057,1.68137143 50.2108343,1.65851429 50.2828343,1.6488 C50.3205486,1.6488 50.3578057,1.6488 50.4012343,1.62594286 C50.5712914,1.60308571 50.7473486,1.59394286 50.9262057,1.57965714 C50.4214057,1.53108571 49.9021486,1.49885714 49.3742629,1.49885714 C32.9490514,1.49885714 10.3189371,31.9751429 0.124565714,71.4429714 C0.124565714,71.4429714 0.868805714,71.4429714 2.08901714,71.4429714 C5.35156,65.6247429 8.28237143,60.1208 10.9622171,54.9542857 C18.1017371,26.9992 32.64328,7.9344 45.5607771,2.88348571" id="path12803" fill="url(#linearGradient-8)"></path>
                <path d="M54.8052343,14.1166857 C56.6716914,12.3369714 58.5437486,10.7358857 60.4014629,9.31388571 C59.97752,8.38502857 59.5390629,7.52537143 59.06872,6.73777143 C57.56592,8.56085714 56.1928343,10.9666857 54.8052343,14.1166857" id="path12807" fill="#0D82CA"></path>
                <path d="M56.1545486,3.11902857 C57.2276343,4.01902857 58.1880914,5.25662857 59.0680343,6.73937143 C59.3449486,6.39897143 59.6248914,6.08445714 59.9161486,5.79022857 C58.6960343,4.65085714 57.3776343,3.71622857 55.9468343,3.0124 C56.0045486,3.0444 56.0622057,3.07011429 56.1222057,3.09548571 C56.1222057,3.09548571 56.1450629,3.11834286 56.1547771,3.11834286" id="path12811" fill="#0D82CA"></path>
                <path d="M10.96148,54.9576571 C25.9386057,26.0965714 33.0348571,7.83091429 45.5600343,2.88662857 C32.6454286,7.94074286 18.101,27.0053143 10.96148,54.9576571" id="path12831" fill="url(#linearGradient-9)"></path>
                <path d="M59.9151771,5.78948571 C59.6239771,6.08674286 59.3470629,6.39828571 59.06712,6.73868571 C59.5374057,7.52605714 59.9756914,8.38291429 60.4028343,9.31457143 C60.9566629,8.89062857 61.50752,8.48954286 62.0556343,8.09725714 C61.3778629,7.26068571 60.6624343,6.4848 59.9151771,5.78948571" id="path12843" fill="#127BCA"></path>
                <path d="M17.7606114,71.3166286 C17.6683029,71.3394857 17.5759943,71.3394857 17.4894514,71.3492 C17.4605943,71.3492 17.4548229,71.3492 17.4375086,71.3492 C17.3595086,71.3492 17.2787371,71.3720571 17.2067371,71.3720571 C17.2067371,71.3720571 17.17788,71.3720571 17.1691371,71.3720571 C16.9817486,71.3949143 16.7970171,71.3949143 16.6181657,71.4092 L16.5604743,71.4092 C31.7193371,70.9850286 38.6482629,63.3953714 42.0867771,52.3875429 C44.7002629,44.0423429 46.8464914,37.0123429 48.7272914,31.1133143 C42.3781486,40.05 36.0001486,50.7029143 29.5875771,62.6368 C26.4952229,68.3888 21.79324,70.7916 17.7604914,71.3053143" id="path12923" fill="url(#linearGradient-10)"></path>
                <path d="M17.7606114,71.3108571 C21.79336,70.7971429 26.4953486,68.3971429 29.5876971,62.6423429 C36.0002629,50.7114286 42.38112,40.0555429 48.7244914,31.1188571 C51.0322057,23.8753714 52.9360914,18.3313143 54.8053486,14.1109143 C42.16192,26.1457143 29.4694229,46.1566857 17.7606114,71.3050857" id="path12949" fill="url(#linearGradient-11)"></path>
                <path d="M10.9607657,54.9583429 C8.28103429,60.1248571 5.35022857,65.6288 2.08756571,71.4470286 C3.49828,71.4470286 5.54061143,71.4470286 7.80218286,71.4470286 C8.55796571,65.6689143 9.63105714,60.1592571 10.9607657,54.9610857" id="path12961" fill="#05A1E6"></path>
                <path d="M50.4004914,1.64068571 C50.3542057,1.64068571 50.3196914,1.66354286 50.2793486,1.66354286 C50.2100914,1.6864 50.1378629,1.6864 50.0658629,1.69382857 C50.0230057,1.69382857 49.98232,1.69382857 49.9389486,1.71668571 C49.8609486,1.73954286 49.7889486,1.74182857 49.71392,1.75611429 C49.6790629,1.75611429 49.64472,1.75611429 49.6158629,1.77897143 C49.4512914,1.8064 49.2898629,1.83668571 49.12832,1.86434286 C49.0997486,1.86434286 49.0906057,1.86434286 49.0734629,1.86434286 C48.98992,1.8872 48.91472,1.8992 48.8369486,1.91062857 C48.7963771,1.93348571 48.7561486,1.93348571 48.7185486,1.94262857 C48.6407771,1.96548571 48.5627771,1.9752 48.4878057,1.98891429 C48.4472343,2.01177143 48.4158057,2.01177143 48.3781486,2.01405714 C48.10992,2.07868571 47.8444914,2.14794286 47.5762057,2.22177143 C47.5476343,2.22177143 47.5185486,2.24462857 47.48392,2.2492 C47.4031771,2.27205714 47.3251771,2.29548571 47.2416343,2.32074286 C47.2067771,2.3436 47.1666057,2.3436 47.1319771,2.35274286 C47.0512343,2.3756 46.9704343,2.39902857 46.8925486,2.42428571 C46.86112,2.42428571 46.8348914,2.44714286 46.8060343,2.44714286 C46.6214057,2.51634286 46.4396914,2.5856 46.2492914,2.64331429 C46.2492914,2.64331429 46.2492914,2.64331429 46.2492914,2.64331429 C46.1685486,2.66845714 46.0819771,2.70097143 45.9954629,2.73097143 C45.9606057,2.75382857 45.9290057,2.75897143 45.8888343,2.77497143 C45.8080343,2.80011429 45.7272914,2.83268571 45.6522629,2.86268571 C45.6236914,2.88554286 45.5946057,2.88782857 45.5744914,2.89982857 C33.0493429,7.84411429 25.9530914,26.1097714 10.9759657,54.9708571 C9.64613714,60.1690286 8.57016,65.6786857 7.81726857,71.4565714 L8.6192,71.4565714 C10.8778857,71.4565714 11.5153943,71.4337143 14.1144686,71.4337143 L14.24716,71.4337143 L14.6337029,71.4337143 L14.7664,71.4337143 L14.804,71.4337143 L14.9366914,71.4337143 L15.0116914,71.4337143 L15.0636343,71.4337143 L15.16748,71.4337143 L15.4905657,71.4337143 L15.8136457,71.4337143 L16.0848,71.4337143 L16.1568057,71.4337143 C16.3125771,71.4337143 16.4712286,71.4337143 16.6327714,71.4337143 C16.8116171,71.4108571 16.99624,71.4108571 17.1837429,71.3965714 C17.1837429,71.3965714 17.2126,71.3965714 17.2183714,71.3965714 C17.2963714,71.3965714 17.3741429,71.3737143 17.4491429,71.3737143 C17.478,71.3737143 17.4807429,71.3737143 17.5038286,71.3737143 C17.5873657,71.3737143 17.6826743,71.3508571 17.7749829,71.3411429 C29.4838,46.1927429 42.1762629,26.1817714 54.8196914,14.1469714 C56.2100914,10.9969714 57.58032,8.59114286 59.0803771,6.77102857 C58.2034057,5.28834286 57.2428343,4.04794286 56.1697486,3.14771429 C56.1697486,3.14771429 56.1406057,3.14771429 56.13832,3.12485714 C56.0776343,3.09971429 56.0202057,3.06942857 55.95952,3.03948571 C55.8987771,3.00691429 55.8468914,2.98177143 55.7836343,2.94948571 C55.7287771,2.92662857 55.6652914,2.89634286 55.6105486,2.8664 C55.5355771,2.84354286 55.4748914,2.81097143 55.4086629,2.78097143 C55.3538057,2.75811429 55.3047771,2.73468571 55.2498629,2.71177143 C55.1372343,2.66777143 55.0248914,2.62177143 54.9181486,2.57331429 C54.8690057,2.55045714 54.8230629,2.53845714 54.7766629,2.52017143 C54.6988914,2.49217143 54.6093486,2.45554286 54.5286057,2.42091429 C54.4880343,2.39805714 54.4420343,2.39348571 54.39592,2.37691429 C54.2777486,2.33748571 54.1622629,2.29617143 54.0526057,2.2592 C54.0240343,2.2592 54.0240343,2.2592 54.0240343,2.2592 C53.8912914,2.2152 53.76152,2.18308571 53.62592,2.14611429 C53.5944914,2.12325714 53.5682057,2.12325714 53.5366057,2.11868571 C53.4182057,2.08611429 53.3143771,2.05405714 53.2019771,2.02405714 C53.1734057,2.02405714 53.14712,2.0012 53.1242057,2.0012 C52.8530629,1.92965714 52.5732343,1.872 52.2905486,1.81891429 C52.2614057,1.81891429 52.2328914,1.79605714 52.2040343,1.79605714 C52.0828914,1.7732 51.9646057,1.75205714 51.8434629,1.73834286 C51.81432,1.71548571 51.7971771,1.71548571 51.7714629,1.71548571 C51.6272343,1.69262857 51.4858629,1.67605714 51.3444914,1.66005714 C51.31592,1.66005714 51.2953486,1.66005714 51.26952,1.66005714 C51.1541486,1.6372 51.04752,1.63491429 50.9406629,1.62291429 C50.7588343,1.64577143 50.5858629,1.65548571 50.4156343,1.67148571" id="path12981" fill="url(#linearGradient-12)"></path>
                <path d="M135.636263,18.7609714 C132.754491,27.9918857 130.420777,35.6073714 128.390034,41.8728571 C136.296834,30.9919429 144.085406,17.3041143 151.501977,1.508 C142.850777,4.22508571 138.235349,10.4446286 135.636263,18.7609714" id="path13003" fill="url(#linearGradient-13)"></path>
                <path d="M128.640949,67.3732 C128.23712,67.5785714 127.833291,67.7740571 127.435177,67.9501143 C142.816149,61.0904 161.162549,33.8823429 169.946434,0.00794285714 L168.166491,0.00794285714 C147.985463,36.0573714 141.495006,60.1904 128.640949,67.3732" id="path13093" fill="url(#linearGradient-14)"></path>
                <path d="M118.597406,64.3445143 C121.943577,60.2598857 124.669463,53.3166286 128.390891,41.8730857 C124.09832,47.7693143 119.777349,52.8377714 115.45312,56.9713714 C115.45312,56.9942286 115.45312,56.9942286 115.430263,57.0085143 C116.373691,59.8354857 117.40912,62.3305714 118.589063,64.3440571" id="path13097" fill="#079AE1"></path>
                <path d="M118.597406,64.3445143 C117.457863,65.7349714 116.252263,66.7937143 114.910777,67.5783429 C114.616549,67.7491429 114.319577,67.91 114.016549,68.0572 C115.433063,68.8215429 116.979006,69.3322286 118.709749,69.5369143 C118.963406,69.5620571 119.214491,69.5854857 119.47712,69.6038286 L119.523406,69.6038286 C119.64112,69.6038286 119.765749,69.6038286 119.892663,69.6266857 L119.94352,69.6266857 C120.070491,69.6266857 120.197634,69.6266857 120.32152,69.6266857 C120.457691,69.6266857 120.59272,69.6266857 120.728377,69.6266857 C120.772377,69.6266857 120.813806,69.6266857 120.855349,69.6266857 C120.947634,69.6266857 121.046834,69.6266857 121.143806,69.6266857 C121.190091,69.6266857 121.238377,69.6266857 121.284549,69.6038286 C121.374549,69.6038286 121.469177,69.6038286 121.561463,69.5809714 C121.58432,69.5809714 121.58432,69.5809714 121.594034,69.5809714 C121.631177,69.5809714 121.663234,69.5809714 121.697863,69.5809714 C121.792491,69.5809714 121.89632,69.5581143 121.997863,69.5484 C121.997863,69.5484 122.02072,69.5484 122.02072,69.5484 C122.051006,69.5484 122.083006,69.5255429 122.113006,69.5255429 C122.219177,69.5026857 122.329977,69.4929714 122.433349,69.4769714 C122.468206,69.4769714 122.493349,69.4769714 122.527977,69.4769714 C122.645634,69.4541143 122.767291,69.4398286 122.888434,69.4169714 L122.911291,69.4169714 C122.934149,69.4169714 122.936434,69.4169714 122.946149,69.4169714 C123.188491,69.3706857 123.425006,69.3246857 123.66432,69.2646857 C121.679691,68.5377143 120.018149,66.8242286 118.587349,64.3838286" id="path13101" fill="#1969BC"></path>
                <path d="M90.2407771,69.6266857 C91.68032,69.6266857 93.1342057,69.4859429 94.5938057,69.2055429 C95.9438629,68.9604571 97.2966629,68.5852 98.6524343,68.1121143 C99.7804343,68.6632 100.96312,69.0728571 102.215063,69.3266857 C103.18712,69.5251429 104.19672,69.6266857 105.25552,69.6266857 L90.2407771,69.6266857 Z" id="path13105" fill="#1E5CB3"></path>
                <path d="M105.255749,69.6266857 C108.809634,69.6266857 111.625063,69.2055429 114.016549,68.0574286 C115.432834,68.8217714 116.979006,69.3324571 118.709749,69.5373714 C118.963634,69.5625143 119.21472,69.5859429 119.47712,69.6042857 L119.523406,69.6042857 C119.64112,69.6042857 119.765749,69.6042857 119.892663,69.6271429 L119.945806,69.6271429 C120.07272,69.6271429 120.199634,69.6271429 120.323806,69.6271429 L105.245577,69.6271429 L105.255749,69.6266857 Z" id="path13109" fill="#1E5CB3"></path>
                <path d="M120.332777,69.6266857 C120.471234,69.6266857 120.606949,69.6266857 120.742434,69.6266857 C120.781863,69.6266857 120.827806,69.6266857 120.869349,69.6266857 C120.961634,69.6266857 121.056263,69.6266857 121.155063,69.6266857 C121.203634,69.6266857 121.249634,69.6266857 121.295806,69.6038286 C121.385806,69.6038286 121.480434,69.6038286 121.575749,69.5809714 C121.598606,69.5809714 121.598606,69.5809714 121.606034,69.5809714 C121.643177,69.5809714 121.677577,69.5809714 121.712206,69.5809714 C121.806777,69.5809714 121.910663,69.5581143 122.009406,69.5489714 C122.009406,69.5489714 122.032263,69.5489714 122.034549,69.5489714 C122.064834,69.5489714 122.094549,69.5261143 122.124549,69.5261143 C122.23072,69.5032571 122.34152,69.4941143 122.444663,69.4775429 C122.47952,69.4775429 122.506949,69.4775429 122.543863,69.4546857 C122.661577,69.4318286 122.783406,69.4198286 122.904606,69.3970286 L122.927463,69.3970286 C122.95032,69.3970286 122.952606,69.3970286 122.96232,69.3970286 C123.204663,69.3507429 123.441177,69.3046857 123.680491,69.2446857 C124.375577,69.5013143 125.099749,69.6312571 125.881349,69.6312571 L120.337063,69.6541143 L120.332777,69.6266857 Z" id="path13113" fill="#1D60B5"></path>
                <path d="M115.43952,57.0089714 C115.43952,57.0089714 115.43952,56.9861143 115.43952,56.9861143 C113.85592,58.5004571 112.27512,59.8881143 110.69712,61.1428 C109.872091,61.7977143 109.050091,62.4178286 108.219349,63.0035429 C108.914434,63.8342857 109.621291,64.6131429 110.36552,65.3228 C111.49632,66.4187429 112.704834,67.3420571 114.023234,68.0544571 C114.323234,67.9067429 114.623234,67.7456571 114.914491,67.5756 C116.25872,66.7909714 117.464549,65.7324 118.604091,64.342 C117.424149,62.3285143 116.388663,59.8331429 115.445291,57.0062286" id="path13117" fill="#175FAB"></path>
                <path d="M162.52992,0.00794285714 L155.04712,0.00794285714 C154.796034,0.00794285714 154.54792,0.00794285714 154.302834,0.00794285714 C154.063291,0.00794285714 153.832549,0.00794285714 153.599006,0.00794285714 L153.571577,0.00794285714 C153.086949,0.0308 152.616891,0.0473714286 152.15232,0.0772 C151.93312,0.547542857 151.708091,1.01782857 151.491634,1.49091429 C144.075291,17.2870286 136.28672,30.9748571 128.37992,41.8557714 C124.661577,53.2990857 121.93272,60.2425714 118.586491,64.3272571 C120.017291,66.7676571 121.681749,68.4838857 123.660606,69.2108571 C123.71832,69.188 123.764434,69.188 123.816377,69.176 C123.816377,69.176 123.844949,69.176 123.848377,69.176 C123.883234,69.176 123.920377,69.1531429 123.958034,69.1531429 C124.038777,69.1302857 124.125349,69.116 124.206091,69.0908571 C124.258091,69.068 124.301177,69.0657143 124.353349,69.0491429 C124.42832,69.0262857 124.506091,69.0097143 124.575349,68.9914286 C124.621634,68.9685714 124.667634,68.9611429 124.713806,68.952 C124.829177,68.9148571 124.933006,68.8873714 125.042663,68.8527429 C125.094663,68.8298857 125.14952,68.8110286 125.207177,68.7973143 C125.270663,68.7744571 125.334091,68.7578857 125.391806,68.7304 C125.458263,68.7075429 125.524491,68.6955429 125.582206,68.6704 C125.634206,68.6475429 125.688834,68.6332571 125.737977,68.6126857 C125.867634,68.5664 125.99472,68.5273143 126.124491,68.4765143 C126.159349,68.4765143 126.193749,68.4445143 126.231349,68.4370857 C126.30912,68.4045143 126.38992,68.3793714 126.46792,68.3447429 C126.496491,68.3218857 126.531349,68.3196 126.56872,68.3076 C126.83992,68.1945143 127.119691,68.0791429 127.39952,67.9529143 C127.39952,67.9529143 127.428663,67.9529143 127.428663,67.9529143 C127.82672,67.7775429 128.230606,67.5806857 128.631577,67.376 C141.488491,60.1932 147.979063,36.0601714 168.160091,0.0107428571 L162.523463,0.0107428571 L162.52992,0.00794285714 Z" id="path13139" fill="url(#linearGradient-15)"></path>
                <path d="M50.9260914,1.592 C50.9580914,1.592 50.9867771,1.592 51.0183771,1.61485714 C51.0961486,1.61485714 51.1741486,1.61485714 51.2520343,1.64 C51.2811771,1.64 51.3068914,1.64 51.3300343,1.64 C51.4712914,1.66285714 51.61272,1.67485714 51.7569486,1.69542857 C51.7832343,1.69542857 51.8060914,1.69542857 51.8289486,1.71828571 C51.94712,1.74114286 52.0683771,1.76 52.18952,1.77828571 C52.2158057,1.77828571 52.2502629,1.80114286 52.2790629,1.80114286 C52.5560343,1.85657143 52.83872,1.91422857 53.1098629,1.98577143 C53.1355771,1.98577143 53.1618629,2.00862857 53.1848914,2.00862857 C53.3002629,2.03605714 53.4040914,2.07091429 53.5194629,2.1032 C53.55432,2.1032 53.57992,2.12605714 53.6118057,2.1312 C53.7474629,2.16605714 53.87432,2.20045714 54.0070057,2.24428571 C54.01272,2.24428571 54.02072,2.24428571 54.0361486,2.26714286 C54.1484914,2.30142857 54.26392,2.3456 54.3822629,2.3848 C54.4285486,2.40765714 54.4715771,2.41737143 54.5149486,2.4288 C54.5957486,2.46365714 54.6852914,2.498 54.7630629,2.53034286 C54.8093486,2.53034286 54.8553486,2.56234286 54.9042629,2.57891429 C55.0108914,2.62748571 55.12352,2.6712 55.23312,2.71737143 C55.2908343,2.74022857 55.3397486,2.76594286 55.3946629,2.78657143 C55.4581486,2.81914286 55.5243771,2.84891429 55.5936343,2.872 C55.6512914,2.89942857 55.7147771,2.92965714 55.7694629,2.95502857 C55.8301486,2.9876 55.8876343,3.01274286 55.94552,3.04502857 C57.37632,3.74891429 58.6946057,4.68651429 59.9148343,5.82308571 C60.3648343,5.35 60.8350057,4.92582857 61.3225486,4.54508571 C58.6542057,2.65274286 55.63112,1.57388571 52.1435771,1.57388571 C51.7396914,1.57388571 51.3358629,1.59674286 50.9262629,1.62702857" id="path13231" fill="#7DCBEC"></path>
                <path d="M59.9152343,5.78948571 C60.6623771,6.48457143 61.3777486,7.26068571 62.0556343,8.09725714 C62.7104343,7.64148571 63.35952,7.20297143 64.0114629,6.79337143 C63.1575771,5.93948571 62.2575771,5.17217143 61.3200343,4.51148571 C60.8325486,4.88948571 60.3652343,5.3164 59.9152343,5.78948571" id="path13235" fill="#5EC5ED"></path>
                <g id="g13243" transform="translate(61.168814, 4.020404) scale(-1, 1) rotate(-180.000000) translate(-61.168814, -4.020404) translate(48.187868, 1.135749)" fill="url(#linearGradient-16)">
                    <path d="M2.73753735,5.31353404 C3.14715832,5.34814989 3.55100999,5.36257317 3.95486165,5.36257317 C7.44240924,5.36257317 10.4655274,4.28371229 13.133833,2.39426344 C15.9492561,4.61544759 19.3531487,5.39141971 24.0810978,5.39141971 L1.1855931,5.39141971 C1.71348492,5.39141971 2.22983812,5.35968851 2.73753735,5.31353404" id="path13245"></path>
                </g>
                <g id="g13253" transform="translate(71.265106, 4.020404) scale(-1, 1) rotate(-180.000000) translate(-71.265106, -4.020404) translate(59.726487, 1.135749)" fill="url(#linearGradient-17)">
                    <path d="M12.5424788,5.39141971 C7.8145297,5.39141971 4.4106371,4.61544759 1.59521407,2.39426344 C2.52984221,1.7336775 3.42985449,0.966359339 4.28371229,0.112501535 C8.20395809,2.60484323 12.0867034,4.25486575 15.9146402,4.97602943 C17.3742755,5.25007163 18.8310262,5.39141971 20.2675842,5.39141971 L12.5424788,5.39141971 Z" id="path13255"></path>
                </g>
                <path d="M128.390034,41.8786286 C130.423691,35.6073714 132.751577,27.9949143 135.63912,18.7609714 C138.24112,10.4416571 142.84792,4.22234286 151.498949,1.508 C151.727463,1.04342857 151.943234,0.564571429 152.165463,0.0942857143 C138.062263,0.9396 131.470834,8.1136 128.153463,18.7379429 C122.352434,37.2862286 118.838891,49.3094857 115.455234,56.9711429 C119.776434,52.8402857 124.097634,47.7690857 128.390034,41.8786286" id="path13333" fill="url(#linearGradient-18)"></path>
            </g>
        </g>
    </g>
</svg>