<?xml version="1.0" encoding="utf-8"?>
<!-- Generator: Adobe Illustrator 22.0.0, SVG Export Plug-In . SVG Version: 6.00 Build 0)  -->
<svg version="1.1" id="Calque_1" xmlns="http://www.w3.org/2000/svg" xmlns:xlink="http://www.w3.org/1999/xlink" x="0px" y="0px"
	 viewBox="0 0 32 32" style="enable-background:new 0 0 32 32;" xml:space="preserve">
<style type="text/css">
	.st0{fill:#FFFFFF;}
</style>
<g>
	<path class="st0" d="M12,19.6c-0.2-0.1-0.5-0.1-0.8-0.1c0,1.3,0,2.6,0,3.9c0.1,0,0.2,0,0.3,0c0.7,0,0.9-0.2,1-0.8
		c0.1-0.4,0.1-0.8,0.1-1.2c0-0.5-0.1-0.9-0.1-1.3C12.5,19.8,12.3,19.6,12,19.6z"/>
	<path class="st0" d="M16.8,20.6c0.1-0.3,0.2-0.6-0.1-0.9s-0.7-0.2-1-0.2c0,0.5,0,1,0,1.5C16.1,21,16.6,21.1,16.8,20.6z"/>
	<path class="st0" d="M15.7,21.8c0,0.6,0,1.1,0,1.7c0.4,0,0.9,0.1,1.2-0.3c0.2-0.3,0.2-0.7,0-1C16.5,21.7,16.1,21.8,15.7,21.8z"/>
	<path class="st0" d="M24.7,2.8H7.3c-2.5,0-4.5,2-4.5,4.5v8.6v1.8v6.9c0,2.5,2,4.5,4.5,4.5h17.4c2.5,0,4.5-2,4.5-4.5v-6.9v-1.8V7.3
		C29.2,4.8,27.2,2.8,24.7,2.8z M21.4,8L21.4,8c1-0.1,2-0.1,2.9-0.1c0,0.2,0,0.3,0,0.5c-0.9,0-2,0-3,0C21.3,8.3,21.4,8.1,21.4,8z
		 M21.5,8.8c0.6,0,1.3,0,1.9,0c0,0.2,0,0.3,0,0.5c-0.8,0-1.6,0-2.4,0C21,8.9,21.1,8.8,21.5,8.8z M20.6,10.1c0,0,0,0.1,0.1,0.2
		c0-0.5,0.3-0.5,0.6-0.5c0.7,0,1.4,0,2.1,0c0,0.2,0,0.3,0,0.5c-0.4,0-0.9,0-1.3,0c0-0.1,0-0.1-0.1-0.2c0,0.1-0.1,0.2-0.1,0.2
		c-0.4,0-0.8,0-1.2,0c-0.4,0-0.9,0-1.3,0c0-0.1-0.1-0.2-0.1-0.3c0,0.1,0,0.2,0,0.3c-0.4,0-0.9,0-1.4,0c0-0.2,0-0.3,0-0.5
		c0.1,0,0.2,0,0.3,0c0.7,0,1.4,0,2,0C20.4,9.8,20.6,9.9,20.6,10.1z M22.1,11.3c0-0.2,0-0.3,0-0.5c0.4,0,0.9,0,1.3,0
		c0,0.2,0,0.3,0,0.5C23,11.3,22.5,11.3,22.1,11.3z M23.4,11.8c0,0.2,0,0.3,0,0.5c-0.5,0-0.9,0-1.3,0c0-0.2,0-0.3,0-0.5
		C22.6,11.8,23,11.8,23.4,11.8z M21.2,11.3c-0.4,0-0.8,0-1.1,0c-0.4,0-0.5,0-0.5-0.5c0.7,0,1.4,0,2.2,0
		C21.7,11.3,21.7,11.3,21.2,11.3z M20.6,14.3c-0.1-0.2-0.1-0.3-0.2-0.5c0.1,0,0.2,0,0.4,0C20.8,14,20.8,14.1,20.6,14.3z M20.2,12.8
		c0.3,0,0.6,0,1,0c-0.2,0.2,0,0.5-0.4,0.5C20.3,13.3,20.2,13.3,20.2,12.8z M20.4,12.4c-0.3,0-0.4-0.1-0.4-0.3
		c-0.1-0.2-0.1-0.2-0.1-0.3c0.5,0,1.1,0,1.6,0c0,0.1-0.1,0.3-0.1,0.4c0,0.1-0.1,0.1-0.2,0.2C20.9,12.4,20.7,12.4,20.4,12.4z
		 M17.9,11.3c0-0.2,0-0.3,0-0.5c0.5,0,0.9,0,1.4,0c0,0.2,0,0.3,0,0.5C18.8,11.3,18.3,11.3,17.9,11.3z M19.3,11.8c0,0.2,0,0.3,0,0.5
		c-0.5,0-1,0-1.4,0c0-0.2,0-0.3,0-0.5C18.4,11.8,18.8,11.8,19.3,11.8z M20.3,9.4c-0.8,0-1.6,0-2.4,0c0-0.2,0-0.3,0-0.5
		c0.1,0,0.2,0,0.3,0c0.5,0,1.1,0,1.6,0C20.2,8.8,20.2,8.8,20.3,9.4z M17,6.9c0.8,0,1.7,0,2.5,0c0,0.2,0.1,0.3,0.2,0.5
		c-0.9,0-1.8,0-2.7,0C17,7.2,17,7.1,17,6.9z M16.9,7.9c0.1,0,0.2,0,0.3,0c0.7,0,1.5,0,2.2,0c0.5,0,0.5,0,0.6,0.5c-1,0-2,0-3.1,0
		C16.9,8.2,16.9,8.1,16.9,7.9z M16.9,12.8c0.7,0,1.5,0,2.3,0c0,0.2,0,0.3,0,0.5c-0.8,0-1.5,0-2.3,0C16.9,13.1,16.9,13,16.9,12.8z
		 M19.3,13.8c0,0.2,0,0.3,0,0.5c-0.8,0-1.5,0-2.3,0c0-0.2,0-0.3,0-0.5C17.8,13.8,18.5,13.8,19.3,13.8z M12.3,11.3c0-0.2,0-0.3,0-0.5
		c0.1,0,0.2,0,0.3,0c1,0,2,0,3,0c0.4,0,0.6,0.2,0.8,0.5C14.9,11.3,13.6,11.3,12.3,11.3z M13.7,11.8c0,0.2,0,0.3,0,0.5
		c-0.5,0-0.9,0-1.4,0c0-0.2,0-0.3,0-0.5C12.8,11.8,13.2,11.8,13.7,11.8z M15.7,10.3c-1,0-2,0-3.1,0c-0.2,0-0.3,0-0.3,0
		c0-0.2,0-0.3,0-0.5c1.3,0,2.6,0,4,0C16.2,10.2,16,10.3,15.7,10.3z M13.6,9.4c-0.5,0-0.9,0-1.4,0c0-0.2,0-0.3,0-0.5c0.5,0,1,0,1.4,0
		C13.6,9.1,13.6,9.2,13.6,9.4z M16.5,12.8c0,0.5-0.1,0.5-0.5,0.5c-1.4,0-2.9,0-4.3,0c-0.1,0-0.2,0-0.3,0c0-0.2,0-0.3,0-0.5
		C13,12.8,14.8,12.8,16.5,12.8z M15.1,12.3c0-0.2,0-0.3,0-0.5c0.4,0,0.9,0,1.3,0c0.1,0,0.1,0.1,0.1,0.2s0,0.2,0,0.3
		C16.1,12.3,15.6,12.3,15.1,12.3z M15.1,9.4c0-0.2,0-0.3,0-0.5c0.5,0,1,0,1.5,0c-0.1,0.1-0.1,0.3-0.1,0.5C16,9.4,15.5,9.4,15.1,9.4z
		 M11.3,6.9c0.1,0,0.1,0,0.2,0c1.1,0,2.2,0,3.2,0C15.2,6.8,15.6,7,16,7.4c-1.6,0-3.1,0-4.7,0C11.3,7.2,11.3,7.1,11.3,6.9z M11.3,7.9
		c0.1,0,0.2,0,0.3,0c1.5,0,2.9,0,4.4,0c0.4,0,0.5,0,0.5,0.5c-1.7,0-3.4,0-5.2,0C11.3,8.2,11.3,8.1,11.3,7.9z M11.3,13.8
		c1.5,0,3.1,0,4.7,0c-0.3,0.3-0.7,0.5-1,0.5c-1.2,0-2.4,0-3.7,0c0,0,0,0,0,0C11.3,14.2,11.3,14,11.3,13.8z M7.7,6.9c1,0,2.1,0,3.2,0
		c0,0.2,0,0.3,0,0.5c-1.1,0-2.1,0-3.2,0C7.7,7.2,7.7,7.1,7.7,6.9z M7.6,7.9c1.1,0,2.2,0,3.2,0c0,0.2,0,0.3,0,0.5c-1,0-2.1,0-3.2,0
		C7.6,8.2,7.6,8.1,7.6,7.9z M8.5,11.3c0-0.2,0-0.3,0-0.5c0.4,0,0.9,0,1.4,0c0,0.2,0,0.3,0,0.5C9.4,11.3,9,11.3,8.5,11.3z M9.9,11.8
		c0,0.2,0,0.3,0,0.5c-0.4,0-0.9,0-1.4,0c0-0.2,0-0.3,0-0.5C9,11.8,9.4,11.8,9.9,11.8z M8.5,10.3c0-0.2,0-0.3,0-0.5
		c0.5,0,0.9,0,1.4,0c0,0.2,0,0.3,0,0.5C9.5,10.3,9,10.3,8.5,10.3z M8.5,9.4c0-0.2,0-0.3,0-0.5c0.5,0,1,0,1.4,0c0,0.2,0,0.3,0,0.5
		C9.4,9.4,9,9.4,8.5,9.4z M7.6,12.8c1.1,0,2.2,0,3.2,0c0,0.2,0,0.3,0,0.5c-1,0-2.1,0-3.2,0C7.6,13.1,7.6,13,7.6,12.8z M7.7,13.8
		c1,0,2.1,0,3.2,0c0,0.2,0,0.3,0,0.5c-1.1,0-2.1,0-3.2,0C7.7,14.1,7.7,14,7.7,13.8z M13.8,22.2c0,0.3-0.1,0.6-0.2,0.9
		c-0.2,0.6-0.6,1.1-1.3,1.1c-0.7,0.1-1.5,0-2.2,0c0-1.8,0-3.7,0-5.5c0.8,0,1.5,0,2.3,0c0.7,0,1.1,0.5,1.3,1.1
		C13.9,20.6,13.9,21.4,13.8,22.2z M18.2,23.2c-0.1,0.7-0.7,1.1-1.5,1.1s-1.5,0-2.2,0c0-0.1,0-0.2,0-0.3c0-1.7,0-3.3,0-5
		c0-0.3,0.1-0.3,0.3-0.3c0.6,0,1.2,0,1.8,0c1.1,0,1.8,1.1,1.3,2.1c-0.1,0.2-0.4,0.4-0.5,0.6C18.2,21.7,18.3,22.4,18.2,23.2z
		 M21.8,23.4c0.2,0,0.2,0.1,0.2,0.2c0,0.7,0,0.7-0.6,0.7c-0.8,0-1.7,0-2.5,0c-0.1,0-0.2,0-0.3,0c0-0.5,0.1-1,0.4-1.4
		c0.3-0.4,0.6-0.8,1-1.1c0.1-0.1,0.2-0.2,0.4-0.3c0.5-0.4,0.6-0.9,0.5-1.4c0-0.3-0.2-0.4-0.4-0.5c-0.2,0-0.5,0.1-0.6,0.3
		c-0.1,0.2-0.1,0.5-0.2,0.8c-0.3,0-0.6,0-1,0c0,0-0.1-0.1-0.1-0.2c0-0.9,0.3-1.6,1.5-1.6c0.3,0,0.6,0,0.9,0.1c0.6,0.1,1,0.6,1.1,1.2
		c0.1,0.7-0.1,1.3-0.7,1.8c-0.3,0.3-0.6,0.6-0.9,0.9c-0.3,0-0.4,0.2-0.5,0.5C20.6,23.4,21.2,23.4,21.8,23.4z M24.4,14.3
		c-0.8,0-1.5,0-2.3,0c0-0.2,0-0.3,0-0.5c0.8,0,1.5,0,2.3,0C24.4,14,24.4,14.1,24.4,14.3z M24.4,13.3c-0.8,0-1.5,0-2.3,0
		c0-0.2,0-0.3,0-0.5c0.8,0,1.5,0,2.3,0C24.4,13,24.4,13.1,24.4,13.3z M24.4,7.3c-0.9,0-1.8,0-2.7,0c0-0.4,0.1-0.5,0.4-0.5
		c0.7,0,1.5,0,2.3,0C24.4,7,24.4,7.1,24.4,7.3z"/>
</g>
</svg>
