<?xml version="1.0" encoding="UTF-8" standalone="no"?><!DOCTYPE svg PUBLIC "-//W3C//DTD SVG 1.1//EN" "http://www.w3.org/Graphics/SVG/1.1/DTD/svg11.dtd"><svg width="100%" height="100%" viewBox="0 0 250 250" version="1.1" xmlns="http://www.w3.org/2000/svg" xmlns:xlink="http://www.w3.org/1999/xlink" xml:space="preserve" xmlns:serif="http://www.serif.com/" style="fill-rule:evenodd;clip-rule:evenodd;stroke-linejoin:round;stroke-miterlimit:1.41421;"><g><g><g><path d="M59.488,58.402c0,16.275 -13.213,29.488 -29.488,29.488l0,-29.488l29.488,0Z" style="fill:#ff9300;"/><path d="M30,90.281c17.595,0 31.879,-14.284 31.879,-31.879l31.879,0c0,35.189 -28.569,63.759 -63.758,63.759l0,-31.88Z" style="fill:#00d5ff;"/></g><g><path d="M183.02,127.261l0,-68.859l36.98,0l0,6.376l-25.503,0l0,25.503l24.228,0l0,6.376l-24.228,0l0,30.604l-11.477,0Z" style="fill:#414141;"/><path d="M166.443,68.604l1.275,-8.927c0,0 -4.519,-1.275 -15.302,-1.275c-10.783,0 -24.228,5.701 -24.228,19.128c0,20.758 32.517,15.992 32.517,32.516c0,11.28 -11.485,15.908 -29.967,4.464c-3.706,8.576 -3.825,8.926 -3.825,8.926c18.792,9.512 43.355,1.909 43.355,-12.752c0,-31.367 -30.604,-19.317 -30.604,-35.705c0,-9.691 5.921,-13.493 26.779,-6.375Z" style="fill:#414141;"/><path d="M103.96,58.402l12.751,0l0,67.584c0,0 0.505,14.644 -19.127,22.953c-3.605,-3.604 -3.826,-3.825 -3.826,-3.825c0,0 10.202,-3.289 10.202,-19.128c0,-15.839 0,-67.584 0,-67.584Z" style="fill:#414141;"/></g></g><g><rect x="30" y="171.255" width="190" height="20.343" style="fill:#414141;"/><text x="42.335px" y="185.756px" style="font-family:'QuattrocentoSans-Bold', 'Quattrocento Sans', sans-serif;font-weight:700;font-size:17.013px;fill:#fff;">J<tspan x="50.518px 62.376px 74.693px 86.466px 99.09px 111.084px 120.849px 133.081px 145.075px 154.687px 165.609px 177.535px 189.138px 201.132px " y="185.756px 185.756px 185.756px 185.756px 185.756px 185.756px 185.756px 185.756px 185.756px 185.756px 185.756px 185.756px 185.756px 185.756px ">avaServerFaces</tspan></text></g></g></svg>