<svg width="550.801" height="550.801" xmlns="http://www.w3.org/2000/svg">

 <g>
  <title>background</title>
  <rect fill="none" id="canvas_background" height="402" width="582" y="-1" x="-1"/>
 </g>
 <g>
  <title>Layer 1</title>
  <g id="svg_1">
   <g id="svg_2">
    <g id="svg_3">
     <path fill="#645A73" id="svg_4" d="m373.392,415.304c-5.664,0 -9.508,0.543 -11.507,1.091l0,36.355c2.368,0.559 5.289,0.738 9.312,0.738c14.798,0 23.941,-7.499 23.941,-20.092c-0.004,-11.327 -7.862,-18.092 -21.746,-18.092z"/>
     <path fill="#645A73" id="svg_5" d="m475.095,130c-0.031,-2.529 -0.833,-5.023 -2.568,-6.995l-106.208,-121.311c-0.021,-0.031 -0.053,-0.042 -0.089,-0.074c-0.628,-0.709 -1.361,-1.292 -2.136,-1.803c-0.232,-0.153 -0.465,-0.288 -0.707,-0.422c-0.686,-0.369 -1.393,-0.67 -2.136,-0.892c-0.2,-0.061 -0.374,-0.14 -0.575,-0.195c-0.806,-0.189 -1.639,-0.308 -2.478,-0.308l-260.998,0c-11.907,0 -21.6,9.695 -21.6,21.601l0,507.6c0,11.913 9.692,21.601 21.6,21.601l356.4,0c11.918,0 21.6,-9.688 21.6,-21.601l0,-395.991c0,-0.406 -0.063,-0.812 -0.105,-1.21zm-262.654,343.042c0,35.079 -16.809,47.324 -43.854,47.324c-6.392,0 -14.795,-1.097 -20.282,-2.922l3.111,-22.47c3.839,1.271 8.765,2.188 14.249,2.188c11.696,0 19.008,-5.295 19.008,-24.479l0,-77.478l27.772,0l0,77.836l-0.004,0l0,0.001zm53.335,47.14c-14.067,0 -27.949,-3.654 -34.889,-7.494l5.667,-23.023c7.488,3.839 18.995,7.678 30.871,7.678c12.793,0 19.556,-5.3 19.556,-13.347c0,-7.673 -5.843,-12.05 -20.643,-17.354c-20.472,-7.119 -33.803,-18.452 -33.803,-36.355c0,-21.015 17.54,-37.094 46.596,-37.094c13.878,0 24.103,2.922 31.417,6.213l-6.207,22.47c-4.936,-2.368 -13.7,-5.843 -25.766,-5.843c-12.053,0 -17.896,5.479 -17.896,11.87c0,7.857 6.939,11.338 22.837,17.355c21.731,8.042 31.978,19.38 31.978,36.739c-0.011,20.64 -15.899,38.185 -49.718,38.185zm145.626,-58.287c-9.519,8.954 -23.572,12.973 -40.015,12.973c-3.66,0 -6.95,-0.18 -9.503,-0.554l0,44.033l-27.591,0l0,-121.5c8.575,-1.461 20.651,-2.558 37.632,-2.558c17.181,0 29.426,3.279 37.642,9.861c7.868,6.206 13.162,16.442 13.162,28.497c0,12.056 -4.018,22.302 -11.327,29.248zm-314.202,-97.137l0,-345.153l250.204,0l0,110.519c0,5.961 4.83,10.8 10.8,10.8l95.396,0l0.011,223.834l-356.411,0z"/>
    </g>
    <path fill="#645A73" id="svg_6" d="m257.278,202.473c0,0 -14.521,-27.968 -13.988,-48.395c0.39,-14.597 33.309,-29.03 46.248,-49.984c12.878,-20.967 -1.629,-41.378 -1.629,-41.378s3.232,15.048 -5.368,30.634c-8.594,15.585 -40.34,24.737 -52.69,51.598c-12.334,26.873 27.427,57.525 27.427,57.525z"/>
    <path fill="#645A73" id="svg_7" d="m311.587,117.547c0,0 -49.455,18.808 -49.455,40.299c0,21.507 13.434,28.493 15.591,35.474c2.148,6.998 -3.755,18.818 -3.755,18.818s19.351,-13.429 16.103,-29.035c-3.228,-15.591 -18.278,-20.424 -9.672,-36.007c5.748,-10.439 31.188,-29.549 31.188,-29.549z"/>
    <path fill="#645A73" id="svg_8" d="m251.92,230.87c51.018,-1.825 57.019,-11.43 62.345,-16.047c-29.553,8.05 -108.023,7.533 -108.591,1.613c-0.52,-5.914 24.187,-10.758 24.187,-10.758s-38.686,0 -41.916,9.677c-3.237,9.691 18.307,17.116 63.975,15.515z"/>
    <path fill="#645A73" id="svg_9" d="m321.78,206.771c0,0 22.043,0 24.189,13.434c2.136,13.431 -27.938,33.315 -27.938,33.315s47.371,-9.542 42.968,-33.837c-5.368,-29.561 -39.219,-12.912 -39.219,-12.912z"/>
    <path fill="#645A73" id="svg_10" d="m268.002,245.467c-22.383,2.519 -49.431,0.53 -51.598,-3.246c-2.109,-3.763 3.787,-5.901 3.787,-5.901c-26.903,6.462 -12.203,17.721 19.311,19.899c27.01,1.84 57.193,-8.074 57.193,-8.074l9.308,-7.517c0.005,0.001 -21.29,2.959 -38.001,4.839z"/>
    <path fill="#645A73" id="svg_11" d="m226.65,264.114c0,0 -12.195,0.34 -12.902,6.797c-0.72,6.413 3.784,9.672 33.94,8.96c35.896,-0.854 41.882,-5.126 45.578,-8.234l8.743,-6.59c-23.456,3.041 -25.27,3.868 -38.569,4.245c-13.376,0.388 -36.798,1.237 -37.866,-1.241c-1.086,-2.516 1.076,-3.937 1.076,-3.937z"/>
    <path fill="#645A73" id="svg_12" d="m343.818,293.145c4.65,-5.031 -1.445,-8.971 -1.445,-8.971s2.146,2.516 -0.696,5.374c-2.868,2.858 -29.035,10.02 -70.975,12.165c-41.913,2.168 -87.431,-3.928 -88.878,-9.307c-1.382,-5.379 23.316,-9.661 23.316,-9.661c-2.855,0.358 -37.27,1.075 -38.367,10.399c-1.042,9.312 15.05,16.822 79.576,16.822c64.51,0.001 92.829,-11.833 97.469,-16.821z"/>
    <path fill="#645A73" id="svg_13" d="m318.737,314.264c-28.318,5.743 -114.278,2.126 -114.278,2.126s55.87,13.252 119.657,2.151c30.486,-5.305 32.263,-20.07 32.263,-20.07s-9.334,10.05 -37.642,15.793z"/>
   </g>
  </g>
  <g id="svg_14"/>
  <g id="svg_15"/>
  <g id="svg_16"/>
  <g id="svg_17"/>
  <g id="svg_18"/>
  <g id="svg_19"/>
  <g id="svg_20"/>
  <g id="svg_21"/>
  <g id="svg_22"/>
  <g id="svg_23"/>
  <g id="svg_24"/>
  <g id="svg_25"/>
  <g id="svg_26"/>
  <g id="svg_27"/>
  <g id="svg_28"/>
 </g>
</svg>